<svg width="518" height="407" viewBox="0 0 518 407" fill="none" xmlns="http://www.w3.org/2000/svg">
<path d="M242.852 78.2134L242.995 78.3662L255.469 91.691C261.707 98.3542 264.79 101.642 266.592 103.04C267.499 103.744 267.965 103.872 268.27 103.837C268.423 103.819 268.582 103.755 268.78 103.623C268.985 103.487 269.202 103.301 269.483 103.055C270.705 101.989 280.676 93.8016 291.631 84.8662C309.15 70.5769 319.372 62.2119 325.262 57.2948C328.209 54.8354 330.066 53.2434 331.21 52.2057C331.783 51.6863 332.17 51.3125 332.422 51.0422C332.549 50.9071 332.636 50.8035 332.695 50.725C332.713 50.7012 332.727 50.6808 332.739 50.6633C332.736 50.6552 332.733 50.6462 332.729 50.6362C332.688 50.532 332.609 50.3807 332.484 50.1804C332.235 49.7832 331.842 49.2538 331.329 48.6262C330.305 47.3741 328.832 45.7711 327.161 44.1229C325.256 42.2457 323.803 40.6315 322.901 39.4037C322.453 38.7938 322.122 38.2545 321.946 37.8108C321.859 37.5902 321.797 37.362 321.796 37.1433C321.796 36.9154 321.863 36.6649 322.068 36.4765L242.852 78.2134ZM242.852 78.2134L242.643 78.2133L202.526 78.197C191.491 78.1924 181.459 78.2819 174.183 78.4301C170.546 78.5042 167.595 78.593 165.551 78.6922C164.53 78.7418 163.729 78.7942 163.179 78.8495C162.907 78.8769 162.683 78.9063 162.521 78.9391C162.443 78.9548 162.356 78.9759 162.279 79.0073C162.243 79.022 162.179 79.0505 162.117 79.1014C162.061 79.1468 161.926 79.2773 161.926 79.4972C161.926 79.6482 161.983 79.7692 162.026 79.8424C162.073 79.9216 162.131 79.9931 162.189 80.0549C162.304 80.1789 162.458 80.3097 162.634 80.443C162.989 80.7119 163.49 81.0332 164.091 81.3845C165.296 82.0893 166.95 82.94 168.763 83.7691L168.964 83.3301L168.763 83.7691C172.354 85.411 183.874 91.2664 194.365 96.7844L194.574 96.3874L194.365 96.7845L213.378 106.782L240.264 132.485L267.197 158.234L267.535 158.557L267.869 158.229L311.946 114.955L355.687 72.0111L361.467 77.5905L361.759 77.2872L361.467 77.5905C363.155 79.2204 364.743 80.6544 365.942 81.6525C366.54 82.15 367.05 82.5468 367.432 82.8059C367.62 82.9334 367.796 83.0401 367.944 83.1071C368.015 83.1392 368.109 83.1754 368.21 83.19C368.292 83.2018 368.522 83.219 368.703 83.0313L368.704 83.0304C368.773 82.9581 368.829 82.8601 368.864 82.797C368.908 82.7173 368.959 82.6165 369.016 82.4983C369.131 82.2609 369.278 81.9332 369.457 81.5208C369.816 80.6949 370.308 79.5129 370.924 77.9988C372.155 74.9695 373.887 70.5997 376.049 65.0655C380.375 53.9967 386.427 38.2642 393.659 19.2698C394.489 17.0888 395.162 15.0538 395.576 13.5295C395.783 12.7698 395.929 12.1232 395.997 11.6437C396.03 11.4071 396.048 11.1881 396.037 11.0076C396.031 10.9183 396.017 10.8142 395.981 10.7135C395.947 10.6174 395.87 10.4653 395.7 10.3713M242.852 78.2134L343.823 28.5471M343.823 28.5471L343.691 28.1761C354.939 24.1747 370.985 18.4308 379.348 15.4137C383.534 13.9036 387.426 12.5762 390.325 11.6541C391.774 11.1934 392.98 10.8323 393.852 10.6C394.287 10.4843 394.648 10.3982 394.918 10.3482C395.052 10.3235 395.176 10.3053 395.28 10.2985C395.332 10.2952 395.391 10.2938 395.45 10.299C395.498 10.3031 395.598 10.3152 395.7 10.3713M343.823 28.5471L343.691 28.1761C338.064 30.1784 332.834 32.1028 328.94 33.5907M343.823 28.5471L328.94 33.5907M395.7 10.3713L395.466 10.7939M395.7 10.3713C395.7 10.3713 395.7 10.3712 395.7 10.3711L395.466 10.7939M395.466 10.7939C395.055 10.5667 387.876 12.8505 379.512 15.8678C371.148 18.8852 355.101 24.6293 343.852 28.631L361.802 77.2432C365.167 80.4918 368.116 82.9453 368.355 82.6967C369 82.0224 378.745 57.0855 393.207 19.098C394.86 14.7567 395.877 11.02 395.466 10.7939ZM328.94 33.5907C326.994 34.3345 325.379 34.9703 324.214 35.4527M328.94 33.5907L324.214 35.4527M324.214 35.4527C323.632 35.6937 323.159 35.8981 322.811 36.0597M324.214 35.4527L322.811 36.0597M322.811 36.0597C322.637 36.1403 322.49 36.2124 322.374 36.2748M322.811 36.0597L322.374 36.2748M322.374 36.2748C322.274 36.329 322.153 36.3982 322.069 36.4759L322.374 36.2748ZM223.58 11.6512L223.779 12.0913L223.58 11.6512C211.046 17.301 200.907 24.088 190.588 33.7349L190.917 34.0876L190.588 33.7349C186.423 37.6287 181.905 42.4332 178.427 46.5137C176.689 48.5536 175.204 50.4192 174.151 51.9042C173.626 52.6458 173.202 53.301 172.907 53.8408C172.76 54.1105 172.64 54.3596 172.556 54.5818C172.475 54.7964 172.414 55.0209 172.414 55.2305C172.414 55.487 172.58 55.6431 172.663 55.7074C172.758 55.7798 172.868 55.8301 172.964 55.8669C173.162 55.9426 173.428 56.0067 173.735 56.0634C174.355 56.1782 175.237 56.2791 176.306 56.363C178.449 56.5313 181.395 56.6352 184.631 56.6352H196.365H196.566L196.708 56.4916L202.565 50.5623L202.251 50.2521L202.565 50.5623C213.745 39.2413 226.952 31.1395 242.7 25.9462C255.604 21.691 266.208 20.4153 282.403 21.1835L296.109 21.8343L296.202 21.8387L296.289 21.8083L310.202 17.0004L310.044 16.5442L310.202 17.0004C314.036 15.6753 317.485 14.3508 319.956 13.283C321.189 12.75 322.19 12.2763 322.874 11.895C323.213 11.7061 323.495 11.5293 323.691 11.3698C323.786 11.2921 323.886 11.1993 323.959 11.0928C324.023 11.0006 324.142 10.7874 324.055 10.5304C323.983 10.3192 323.83 10.1461 323.682 10.0105C323.525 9.86759 323.326 9.72598 323.098 9.5859C322.642 9.30528 322.024 9.00161 321.281 8.68273C319.791 8.0436 317.744 7.32046 315.358 6.57897C310.584 5.0952 304.413 3.52566 298.546 2.39836L298.455 2.87244L298.546 2.39835C287.629 0.301756 267.889 -0.114599 256.732 1.51585C247.674 2.83927 233.534 7.16492 223.58 11.6512ZM172.741 124.815L172.741 124.815C172.617 121.048 172.447 117.53 172.272 114.897C172.185 113.581 172.096 112.482 172.012 111.682C171.969 111.283 171.927 110.952 171.886 110.703C171.865 110.579 171.844 110.468 171.821 110.376C171.802 110.302 171.769 110.182 171.706 110.083C171.655 110.002 171.587 109.933 171.535 109.884C171.476 109.829 171.406 109.771 171.33 109.712C171.177 109.592 170.976 109.45 170.739 109.29C170.262 108.97 169.611 108.564 168.837 108.101C167.287 107.174 165.224 106.01 163.019 104.829C159.965 103.193 157.881 102.182 156.472 101.711C155.771 101.477 155.187 101.359 154.71 101.392C154.201 101.428 153.799 101.64 153.543 102.044C153.15 102.664 152.842 103.64 152.594 104.841C152.343 106.056 152.144 107.555 151.993 109.258C151.69 112.665 151.578 116.926 151.646 121.449C151.783 130.489 152.64 140.634 154.156 147.174C157.447 161.367 164.51 178.076 171.388 187.908C171.972 188.742 172.502 189.571 172.885 190.231C173.077 190.561 173.228 190.843 173.33 191.059C173.364 191.132 173.392 191.195 173.412 191.247C173.328 191.342 173.203 191.475 173.038 191.645C172.678 192.013 172.145 192.538 171.455 193.206C170.074 194.539 168.075 196.427 165.606 198.731C160.669 203.34 153.856 209.609 146.361 216.425C138.862 223.245 132.109 229.549 127.269 234.212C124.85 236.543 122.905 238.468 121.584 239.843C120.924 240.529 120.414 241.085 120.076 241.489C119.909 241.689 119.773 241.864 119.682 242.006C119.638 242.075 119.591 242.156 119.56 242.24C119.544 242.283 119.525 242.345 119.519 242.42C119.513 242.494 119.518 242.62 119.598 242.747L119.598 242.747C119.682 242.878 119.802 242.943 119.856 242.969C119.924 243.003 119.997 243.028 120.064 243.047C120.199 243.085 120.369 243.117 120.563 243.144C120.953 243.2 121.496 243.249 122.17 243.29C123.522 243.372 125.441 243.429 127.807 243.458C132.54 243.518 139.081 243.47 146.49 243.304L172.383 242.72L172.572 242.716L172.708 242.584L185.889 229.807L198.789 217.301L207.611 223.173C218.64 230.514 230.541 235.66 245.271 239.465C250.264 240.754 253.422 241.465 257.565 241.853C261.695 242.24 266.797 242.305 275.679 242.316C284.618 242.328 289.717 242.279 293.913 241.892C298.121 241.504 301.414 240.777 306.737 239.449C340.373 231.058 369.476 208.686 385.877 178.609C399.902 152.888 404.199 120.374 397.128 93.3761L396.661 93.4984L397.128 93.3761C396.504 90.9933 395.998 89.1633 395.55 87.8533C395.326 87.1985 395.113 86.6598 394.901 86.2409C394.694 85.8328 394.464 85.4887 394.187 85.2752C394.042 85.1634 393.872 85.0786 393.678 85.0496C393.482 85.0202 393.294 85.0532 393.123 85.1274C392.802 85.2665 392.534 85.554 392.3 85.8786C391.824 86.539 391.303 87.6277 390.681 89.0417L391.123 89.2358L390.681 89.0417C390.083 90.4045 389.538 91.6889 389.142 92.6613C388.945 93.1471 388.783 93.558 388.67 93.8631C388.614 94.0151 388.568 94.1455 388.535 94.2479C388.519 94.2987 388.505 94.3479 388.494 94.3922C388.488 94.4147 388.477 94.459 388.472 94.5113C388.47 94.5175 388.468 94.5257 388.465 94.5362C388.452 94.5801 388.431 94.6452 388.401 94.733C388.341 94.9076 388.253 95.1558 388.137 95.4713C387.905 96.1014 387.57 96.9891 387.155 98.0701C386.326 100.232 385.182 103.16 383.922 106.333C381.88 111.482 380.716 114.648 380.05 117.564C379.381 120.489 379.215 123.146 379.139 127.269C378.816 144.91 371.056 166.585 359.624 181.734C346.111 199.642 324.936 213.858 303.351 219.514C298.041 220.905 289.597 221.847 281.017 222.203C272.439 222.56 263.78 222.33 258.042 221.396C218.156 214.905 185.995 185.698 175.304 146.245C173.88 140.99 173.045 134.05 172.741 124.815Z" fill="#BE123C" stroke="#BE123C" stroke-width="0.965501"/>
<path d="M28.1836 336.908C28.1836 336.083 28.0566 335.342 27.8027 334.686C27.57 334.009 27.1257 333.395 26.4697 332.845C25.8138 332.274 24.8934 331.713 23.7085 331.163C22.5236 330.613 20.9896 330.042 19.1064 329.449C17.0117 328.772 15.0228 328.01 13.1396 327.164C11.2777 326.318 9.62728 325.334 8.18848 324.212C6.77083 323.07 5.64941 321.747 4.82422 320.245C4.02018 318.743 3.61816 316.997 3.61816 315.008C3.61816 313.083 4.04134 311.337 4.8877 309.771C5.73405 308.185 6.91895 306.83 8.44238 305.709C9.96582 304.566 11.7643 303.688 13.8379 303.075C15.9326 302.461 18.2284 302.154 20.7251 302.154C24.1317 302.154 27.1045 302.768 29.6436 303.995C32.1826 305.222 34.1504 306.904 35.5469 309.042C36.9645 311.179 37.6733 313.622 37.6733 316.373H28.2153C28.2153 315.019 27.9297 313.834 27.3584 312.818C26.8083 311.782 25.9619 310.967 24.8193 310.375C23.6979 309.782 22.2803 309.486 20.5664 309.486C18.916 309.486 17.5407 309.74 16.4404 310.248C15.3402 310.734 14.515 311.401 13.9648 312.247C13.4147 313.072 13.1396 314.003 13.1396 315.04C13.1396 315.823 13.3301 316.532 13.7109 317.167C14.113 317.801 14.7054 318.394 15.4883 318.944C16.2712 319.494 17.2339 320.012 18.3765 320.499C19.519 320.986 20.8415 321.462 22.3438 321.927C24.8617 322.689 27.0728 323.546 28.9771 324.498C30.9025 325.45 32.5106 326.519 33.8013 327.704C35.092 328.889 36.0653 330.232 36.7212 331.734C37.3771 333.237 37.7051 334.94 37.7051 336.844C37.7051 338.854 37.3136 340.653 36.5308 342.24C35.7479 343.827 34.6159 345.17 33.1348 346.271C31.6536 347.371 29.8869 348.207 27.8345 348.778C25.7821 349.349 23.4863 349.635 20.9473 349.635C18.6621 349.635 16.4087 349.339 14.187 348.746C11.9653 348.132 9.94466 347.212 8.125 345.985C6.3265 344.758 4.8877 343.192 3.80859 341.288C2.72949 339.383 2.18994 337.13 2.18994 334.527H11.7432C11.7432 335.966 11.9653 337.183 12.4097 338.177C12.854 339.172 13.4782 339.976 14.2822 340.589C15.1074 341.203 16.0807 341.647 17.2021 341.922C18.3447 342.197 19.5931 342.335 20.9473 342.335C22.5977 342.335 23.9518 342.102 25.0098 341.637C26.0889 341.171 26.8823 340.526 27.3901 339.701C27.9191 338.875 28.1836 337.944 28.1836 336.908ZM45.3984 332.179V331.512C45.3984 328.994 45.7581 326.677 46.4775 324.562C47.1969 322.424 48.2443 320.573 49.6196 319.007C50.995 317.442 52.6877 316.225 54.6978 315.357C56.7078 314.469 59.0142 314.024 61.6167 314.024C64.2192 314.024 66.5361 314.469 68.5674 315.357C70.5986 316.225 72.3019 317.442 73.6772 319.007C75.0737 320.573 76.1317 322.424 76.8511 324.562C77.5705 326.677 77.9302 328.994 77.9302 331.512V332.179C77.9302 334.675 77.5705 336.992 76.8511 339.129C76.1317 341.245 75.0737 343.097 73.6772 344.684C72.3019 346.249 70.6092 347.466 68.5991 348.333C66.589 349.201 64.2827 349.635 61.6802 349.635C59.0776 349.635 56.7607 349.201 54.7295 348.333C52.7194 347.466 51.0161 346.249 49.6196 344.684C48.2443 343.097 47.1969 341.245 46.4775 339.129C45.7581 336.992 45.3984 334.675 45.3984 332.179ZM54.5391 331.512V332.179C54.5391 333.618 54.666 334.961 54.9199 336.209C55.1738 337.458 55.5758 338.558 56.126 339.51C56.6973 340.441 57.4378 341.171 58.3477 341.7C59.2575 342.229 60.3683 342.494 61.6802 342.494C62.9497 342.494 64.0394 342.229 64.9492 341.7C65.859 341.171 66.589 340.441 67.1392 339.51C67.6893 338.558 68.0913 337.458 68.3452 336.209C68.6203 334.961 68.7578 333.618 68.7578 332.179V331.512C68.7578 330.116 68.6203 328.804 68.3452 327.577C68.0913 326.328 67.6787 325.228 67.1074 324.276C66.5573 323.303 65.8273 322.541 64.9175 321.991C64.0076 321.441 62.9074 321.166 61.6167 321.166C60.326 321.166 59.2257 321.441 58.3159 321.991C57.4272 322.541 56.6973 323.303 56.126 324.276C55.5758 325.228 55.1738 326.328 54.9199 327.577C54.666 328.804 54.5391 330.116 54.5391 331.512ZM107.11 340.78V314.659H116.251V349H107.65L107.11 340.78ZM108.126 333.734L110.824 333.67C110.824 335.956 110.559 338.082 110.03 340.05C109.501 341.996 108.708 343.689 107.65 345.128C106.592 346.546 105.259 347.656 103.651 348.46C102.043 349.243 100.149 349.635 97.9697 349.635C96.2982 349.635 94.7536 349.402 93.3359 348.937C91.9395 348.45 90.7334 347.699 89.7178 346.683C88.7233 345.646 87.9404 344.324 87.3691 342.716C86.819 341.087 86.5439 339.129 86.5439 336.844V314.659H95.6846V336.908C95.6846 337.923 95.8009 338.78 96.0337 339.479C96.2876 340.177 96.6367 340.748 97.0811 341.192C97.5254 341.637 98.0438 341.954 98.6362 342.145C99.2498 342.335 99.9269 342.43 100.667 342.43C102.551 342.43 104.032 342.049 105.111 341.288C106.211 340.526 106.983 339.489 107.428 338.177C107.893 336.844 108.126 335.363 108.126 333.734ZM135.624 322.149V349H126.483V314.659H135.084L135.624 322.149ZM145.971 314.437L145.812 322.911C145.368 322.848 144.828 322.795 144.193 322.752C143.58 322.689 143.019 322.657 142.511 322.657C141.221 322.657 140.099 322.826 139.147 323.165C138.216 323.482 137.433 323.958 136.798 324.593C136.185 325.228 135.719 326 135.402 326.91C135.106 327.82 134.936 328.857 134.894 330.021L133.053 329.449C133.053 327.228 133.275 325.186 133.72 323.324C134.164 321.441 134.809 319.801 135.656 318.404C136.523 317.008 137.581 315.929 138.83 315.167C140.078 314.405 141.506 314.024 143.114 314.024C143.622 314.024 144.14 314.067 144.669 314.151C145.198 314.215 145.632 314.31 145.971 314.437ZM167.089 342.494C168.211 342.494 169.205 342.282 170.073 341.859C170.94 341.415 171.617 340.801 172.104 340.018C172.612 339.214 172.876 338.272 172.897 337.193H181.499C181.477 339.605 180.832 341.753 179.562 343.636C178.293 345.498 176.59 346.969 174.453 348.048C172.316 349.106 169.925 349.635 167.28 349.635C164.614 349.635 162.286 349.19 160.297 348.302C158.33 347.413 156.69 346.186 155.378 344.62C154.066 343.033 153.082 341.192 152.426 339.098C151.77 336.982 151.442 334.718 151.442 332.306V331.385C151.442 328.952 151.77 326.688 152.426 324.593C153.082 322.477 154.066 320.637 155.378 319.071C156.69 317.484 158.33 316.246 160.297 315.357C162.265 314.469 164.571 314.024 167.216 314.024C170.03 314.024 172.495 314.564 174.611 315.643C176.748 316.722 178.42 318.267 179.626 320.277C180.853 322.266 181.477 324.625 181.499 327.354H172.897C172.876 326.212 172.633 325.175 172.167 324.244C171.723 323.313 171.067 322.573 170.2 322.022C169.353 321.451 168.306 321.166 167.058 321.166C165.725 321.166 164.635 321.451 163.789 322.022C162.942 322.573 162.286 323.334 161.821 324.308C161.355 325.26 161.027 326.349 160.837 327.577C160.668 328.783 160.583 330.052 160.583 331.385V332.306C160.583 333.639 160.668 334.919 160.837 336.146C161.006 337.373 161.324 338.463 161.789 339.415C162.276 340.367 162.942 341.118 163.789 341.668C164.635 342.219 165.735 342.494 167.089 342.494ZM205.854 349.635C203.188 349.635 200.798 349.212 198.682 348.365C196.566 347.498 194.767 346.302 193.286 344.779C191.826 343.255 190.705 341.489 189.922 339.479C189.139 337.447 188.748 335.289 188.748 333.004V331.734C188.748 329.132 189.118 326.751 189.858 324.593C190.599 322.435 191.657 320.562 193.032 318.976C194.429 317.389 196.121 316.172 198.11 315.326C200.099 314.458 202.342 314.024 204.839 314.024C207.272 314.024 209.43 314.426 211.313 315.23C213.197 316.035 214.773 317.177 216.042 318.658C217.333 320.139 218.306 321.917 218.962 323.99C219.618 326.043 219.946 328.328 219.946 330.846V334.654H192.651V328.561H210.964V327.862C210.964 326.593 210.732 325.461 210.266 324.466C209.822 323.451 209.145 322.647 208.235 322.054C207.325 321.462 206.161 321.166 204.744 321.166C203.538 321.166 202.501 321.43 201.633 321.959C200.766 322.488 200.057 323.229 199.507 324.181C198.978 325.133 198.576 326.254 198.301 327.545C198.047 328.814 197.92 330.211 197.92 331.734V333.004C197.92 334.379 198.11 335.649 198.491 336.812C198.893 337.976 199.454 338.981 200.173 339.828C200.914 340.674 201.803 341.33 202.839 341.795C203.897 342.261 205.093 342.494 206.426 342.494C208.076 342.494 209.61 342.176 211.028 341.542C212.467 340.886 213.704 339.902 214.741 338.59L219.185 343.414C218.465 344.451 217.481 345.445 216.233 346.397C215.006 347.35 213.525 348.132 211.79 348.746C210.055 349.339 208.076 349.635 205.854 349.635ZM265.072 339.352L275.958 302.789H286.559L270.467 349H263.485L265.072 339.352ZM255.042 302.789L265.897 339.352L267.547 349H260.501L244.505 302.789H255.042ZM303.202 314.659V349H294.03V314.659H303.202ZM293.458 305.709C293.458 304.376 293.924 303.276 294.855 302.408C295.786 301.541 297.034 301.107 298.6 301.107C300.145 301.107 301.382 301.541 302.313 302.408C303.266 303.276 303.742 304.376 303.742 305.709C303.742 307.042 303.266 308.142 302.313 309.01C301.382 309.877 300.145 310.311 298.6 310.311C297.034 310.311 295.786 309.877 294.855 309.01C293.924 308.142 293.458 307.042 293.458 305.709ZM329.812 349.635C327.146 349.635 324.755 349.212 322.639 348.365C320.523 347.498 318.724 346.302 317.243 344.779C315.783 343.255 314.662 341.489 313.879 339.479C313.096 337.447 312.705 335.289 312.705 333.004V331.734C312.705 329.132 313.075 326.751 313.815 324.593C314.556 322.435 315.614 320.562 316.989 318.976C318.386 317.389 320.078 316.172 322.067 315.326C324.056 314.458 326.299 314.024 328.796 314.024C331.229 314.024 333.387 314.426 335.271 315.23C337.154 316.035 338.73 317.177 340 318.658C341.29 320.139 342.264 321.917 342.919 323.99C343.575 326.043 343.903 328.328 343.903 330.846V334.654H316.608V328.561H334.921V327.862C334.921 326.593 334.689 325.461 334.223 324.466C333.779 323.451 333.102 322.647 332.192 322.054C331.282 321.462 330.118 321.166 328.701 321.166C327.495 321.166 326.458 321.43 325.59 321.959C324.723 322.488 324.014 323.229 323.464 324.181C322.935 325.133 322.533 326.254 322.258 327.545C322.004 328.814 321.877 330.211 321.877 331.734V333.004C321.877 334.379 322.067 335.649 322.448 336.812C322.85 337.976 323.411 338.981 324.13 339.828C324.871 340.674 325.76 341.33 326.796 341.795C327.854 342.261 329.05 342.494 330.383 342.494C332.033 342.494 333.567 342.176 334.985 341.542C336.424 340.886 337.661 339.902 338.698 338.59L343.142 343.414C342.422 344.451 341.438 345.445 340.19 346.397C338.963 347.35 337.482 348.132 335.747 348.746C334.012 349.339 332.033 349.635 329.812 349.635ZM369.18 314.659V321.134H349.185V314.659H369.18ZM354.136 306.185H363.276V338.653C363.276 339.648 363.403 340.41 363.657 340.938C363.932 341.467 364.334 341.838 364.863 342.049C365.392 342.24 366.059 342.335 366.863 342.335C367.434 342.335 367.942 342.314 368.386 342.271C368.852 342.208 369.243 342.145 369.561 342.081L369.592 348.81C368.809 349.063 367.963 349.264 367.053 349.413C366.143 349.561 365.138 349.635 364.038 349.635C362.028 349.635 360.272 349.307 358.77 348.651C357.288 347.974 356.146 346.895 355.342 345.414C354.538 343.932 354.136 341.986 354.136 339.574V306.185ZM415.816 302.789V349H406.294L387.728 318.023V349H378.206V302.789H387.728L406.326 333.797V302.789H415.816ZM445.313 341.256V325.958C445.313 324.858 445.134 323.916 444.774 323.133C444.414 322.329 443.854 321.705 443.092 321.261C442.351 320.816 441.389 320.594 440.204 320.594C439.188 320.594 438.31 320.774 437.569 321.134C436.829 321.472 436.257 321.97 435.855 322.625C435.453 323.26 435.252 324.011 435.252 324.879H426.112C426.112 323.419 426.45 322.033 427.127 320.721C427.805 319.409 428.788 318.256 430.079 317.262C431.37 316.246 432.904 315.453 434.681 314.881C436.48 314.31 438.49 314.024 440.711 314.024C443.377 314.024 445.747 314.469 447.821 315.357C449.894 316.246 451.524 317.579 452.708 319.356C453.915 321.134 454.518 323.355 454.518 326.021V340.716C454.518 342.599 454.634 344.144 454.867 345.35C455.099 346.535 455.438 347.572 455.882 348.46V349H446.646C446.202 348.069 445.864 346.905 445.631 345.509C445.419 344.091 445.313 342.674 445.313 341.256ZM446.52 328.084L446.583 333.258H441.473C440.267 333.258 439.22 333.395 438.331 333.67C437.442 333.945 436.712 334.337 436.141 334.845C435.57 335.331 435.147 335.903 434.872 336.559C434.618 337.215 434.491 337.934 434.491 338.717C434.491 339.5 434.671 340.208 435.03 340.843C435.39 341.457 435.908 341.944 436.585 342.303C437.263 342.642 438.056 342.811 438.966 342.811C440.341 342.811 441.537 342.536 442.552 341.986C443.568 341.436 444.351 340.759 444.901 339.955C445.472 339.151 445.768 338.389 445.79 337.669L448.202 341.542C447.863 342.409 447.398 343.308 446.805 344.239C446.234 345.17 445.504 346.048 444.615 346.874C443.727 347.678 442.658 348.344 441.41 348.873C440.161 349.381 438.68 349.635 436.966 349.635C434.787 349.635 432.809 349.201 431.031 348.333C429.275 347.445 427.879 346.228 426.842 344.684C425.826 343.118 425.318 341.34 425.318 339.352C425.318 337.553 425.657 335.956 426.334 334.559C427.011 333.163 428.006 331.988 429.317 331.036C430.65 330.063 432.311 329.333 434.3 328.846C436.289 328.338 438.596 328.084 441.219 328.084H446.52ZM473.954 321.769V349H464.782V314.659H473.383L473.954 321.769ZM472.685 330.624H470.146C470.146 328.233 470.431 326.032 471.002 324.022C471.595 321.991 472.452 320.235 473.573 318.753C474.716 317.251 476.123 316.087 477.794 315.262C479.466 314.437 481.402 314.024 483.603 314.024C485.126 314.024 486.522 314.257 487.792 314.723C489.062 315.167 490.151 315.876 491.061 316.849C491.992 317.801 492.711 319.05 493.219 320.594C493.727 322.118 493.981 323.948 493.981 326.085V349H484.84V327.101C484.84 325.535 484.629 324.329 484.206 323.482C483.782 322.636 483.179 322.044 482.396 321.705C481.635 321.367 480.714 321.197 479.635 321.197C478.45 321.197 477.414 321.441 476.525 321.927C475.657 322.414 474.938 323.091 474.367 323.958C473.795 324.805 473.372 325.799 473.097 326.942C472.822 328.084 472.685 329.312 472.685 330.624ZM493.124 329.576L489.855 329.989C489.855 327.746 490.13 325.662 490.68 323.736C491.251 321.811 492.087 320.118 493.188 318.658C494.309 317.198 495.695 316.066 497.345 315.262C498.996 314.437 500.9 314.024 503.058 314.024C504.708 314.024 506.211 314.268 507.565 314.754C508.919 315.22 510.072 315.971 511.024 317.008C511.998 318.023 512.738 319.356 513.246 321.007C513.775 322.657 514.04 324.678 514.04 327.069V349H504.867V327.069C504.867 325.482 504.656 324.276 504.232 323.451C503.83 322.604 503.238 322.022 502.455 321.705C501.693 321.367 500.784 321.197 499.726 321.197C498.625 321.197 497.663 321.419 496.837 321.864C496.012 322.287 495.325 322.879 494.774 323.641C494.224 324.403 493.812 325.292 493.537 326.307C493.262 327.302 493.124 328.391 493.124 329.576Z" fill="#BE123C"/>
<path d="M113.96 390.087H117.241C117.07 391.66 116.62 393.067 115.891 394.309C115.162 395.55 114.131 396.536 112.798 397.265C111.465 397.983 109.801 398.342 107.808 398.342C106.349 398.342 105.022 398.068 103.826 397.521C102.641 396.975 101.621 396.2 100.767 395.197C99.9121 394.183 99.2513 392.97 98.7842 391.557C98.3285 390.133 98.1006 388.549 98.1006 386.806V384.328C98.1006 382.585 98.3285 381.007 98.7842 379.594C99.2513 378.17 99.9178 376.951 100.784 375.937C101.661 374.923 102.715 374.143 103.945 373.596C105.176 373.049 106.56 372.775 108.098 372.775C109.978 372.775 111.567 373.129 112.866 373.835C114.165 374.541 115.173 375.521 115.891 376.774C116.62 378.016 117.07 379.458 117.241 381.098H113.96C113.8 379.936 113.504 378.939 113.071 378.107C112.638 377.264 112.023 376.615 111.226 376.159C110.428 375.703 109.386 375.476 108.098 375.476C106.993 375.476 106.019 375.686 105.176 376.108C104.344 376.529 103.643 377.128 103.074 377.902C102.515 378.677 102.094 379.606 101.809 380.688C101.524 381.77 101.382 382.972 101.382 384.294V386.806C101.382 388.025 101.507 389.17 101.758 390.241C102.02 391.312 102.413 392.252 102.937 393.061C103.461 393.87 104.128 394.508 104.937 394.975C105.745 395.431 106.702 395.659 107.808 395.659C109.209 395.659 110.326 395.437 111.157 394.992C111.989 394.548 112.616 393.91 113.037 393.078C113.47 392.246 113.778 391.25 113.96 390.087ZM123.92 388.959V388.566C123.92 387.233 124.114 385.997 124.501 384.858C124.888 383.707 125.447 382.71 126.176 381.867C126.905 381.013 127.788 380.352 128.825 379.885C129.862 379.406 131.024 379.167 132.311 379.167C133.61 379.167 134.778 379.406 135.814 379.885C136.863 380.352 137.751 381.013 138.48 381.867C139.221 382.71 139.785 383.707 140.172 384.858C140.56 385.997 140.753 387.233 140.753 388.566V388.959C140.753 390.292 140.56 391.529 140.172 392.668C139.785 393.807 139.221 394.804 138.48 395.659C137.751 396.502 136.868 397.163 135.832 397.641C134.806 398.108 133.644 398.342 132.345 398.342C131.046 398.342 129.879 398.108 128.842 397.641C127.805 397.163 126.916 396.502 126.176 395.659C125.447 394.804 124.888 393.807 124.501 392.668C124.114 391.529 123.92 390.292 123.92 388.959ZM127.082 388.566V388.959C127.082 389.882 127.19 390.754 127.406 391.574C127.623 392.383 127.947 393.101 128.38 393.728C128.825 394.354 129.377 394.85 130.038 395.214C130.699 395.568 131.468 395.744 132.345 395.744C133.211 395.744 133.969 395.568 134.618 395.214C135.279 394.85 135.826 394.354 136.259 393.728C136.692 393.101 137.016 392.383 137.233 391.574C137.461 390.754 137.575 389.882 137.575 388.959V388.566C137.575 387.655 137.461 386.795 137.233 385.986C137.016 385.166 136.686 384.442 136.242 383.815C135.809 383.177 135.262 382.676 134.601 382.312C133.952 381.947 133.188 381.765 132.311 381.765C131.445 381.765 130.682 381.947 130.021 382.312C129.372 382.676 128.825 383.177 128.38 383.815C127.947 384.442 127.623 385.166 127.406 385.986C127.19 386.795 127.082 387.655 127.082 388.566ZM151.363 383.183V398H148.184V379.509H151.192L151.363 383.183ZM150.713 388.054L149.244 388.002C149.255 386.738 149.42 385.57 149.739 384.499C150.058 383.417 150.531 382.477 151.158 381.679C151.784 380.882 152.565 380.266 153.499 379.833C154.433 379.389 155.516 379.167 156.746 379.167C157.612 379.167 158.41 379.292 159.139 379.543C159.868 379.782 160.5 380.164 161.036 380.688C161.571 381.212 161.987 381.884 162.283 382.705C162.579 383.525 162.728 384.516 162.728 385.678V398H159.566V385.832C159.566 384.864 159.401 384.089 159.07 383.508C158.751 382.927 158.296 382.505 157.703 382.243C157.111 381.97 156.416 381.833 155.618 381.833C154.684 381.833 153.903 381.998 153.277 382.329C152.65 382.659 152.149 383.115 151.773 383.696C151.397 384.277 151.124 384.943 150.953 385.695C150.793 386.436 150.713 387.222 150.713 388.054ZM162.693 386.311L160.574 386.96C160.586 385.946 160.751 384.972 161.07 384.038C161.4 383.103 161.873 382.272 162.488 381.542C163.115 380.813 163.884 380.238 164.795 379.816C165.707 379.383 166.749 379.167 167.923 379.167C168.914 379.167 169.791 379.298 170.555 379.56C171.329 379.822 171.979 380.227 172.503 380.773C173.038 381.309 173.443 381.998 173.716 382.841C173.99 383.684 174.126 384.687 174.126 385.849V398H170.948V385.815C170.948 384.778 170.783 383.975 170.452 383.405C170.133 382.824 169.677 382.42 169.085 382.192C168.504 381.953 167.809 381.833 167 381.833C166.305 381.833 165.69 381.953 165.154 382.192C164.619 382.431 164.169 382.762 163.804 383.183C163.44 383.593 163.16 384.066 162.967 384.602C162.785 385.137 162.693 385.707 162.693 386.311ZM185.556 383.183V398H182.377V379.509H185.385L185.556 383.183ZM184.907 388.054L183.437 388.002C183.448 386.738 183.614 385.57 183.933 384.499C184.252 383.417 184.724 382.477 185.351 381.679C185.978 380.882 186.758 380.266 187.692 379.833C188.627 379.389 189.709 379.167 190.939 379.167C191.805 379.167 192.603 379.292 193.332 379.543C194.061 379.782 194.694 380.164 195.229 380.688C195.765 381.212 196.18 381.884 196.477 382.705C196.773 383.525 196.921 384.516 196.921 385.678V398H193.759V385.832C193.759 384.864 193.594 384.089 193.264 383.508C192.945 382.927 192.489 382.505 191.896 382.243C191.304 381.97 190.609 381.833 189.812 381.833C188.877 381.833 188.097 381.998 187.47 382.329C186.844 382.659 186.342 383.115 185.966 383.696C185.59 384.277 185.317 384.943 185.146 385.695C184.987 386.436 184.907 387.222 184.907 388.054ZM196.887 386.311L194.768 386.96C194.779 385.946 194.944 384.972 195.263 384.038C195.594 383.103 196.066 382.272 196.682 381.542C197.308 380.813 198.077 380.238 198.989 379.816C199.9 379.383 200.943 379.167 202.116 379.167C203.107 379.167 203.985 379.298 204.748 379.56C205.523 379.822 206.172 380.227 206.696 380.773C207.232 381.309 207.636 381.998 207.91 382.841C208.183 383.684 208.32 384.687 208.32 385.849V398H205.141V385.815C205.141 384.778 204.976 383.975 204.646 383.405C204.327 382.824 203.871 382.42 203.278 382.192C202.697 381.953 202.002 381.833 201.193 381.833C200.498 381.833 199.883 381.953 199.348 382.192C198.812 382.431 198.362 382.762 197.998 383.183C197.633 383.593 197.354 384.066 197.16 384.602C196.978 385.137 196.887 385.707 196.887 386.311ZM224.278 398.342C222.991 398.342 221.823 398.125 220.775 397.692C219.738 397.248 218.844 396.627 218.092 395.83C217.351 395.032 216.782 394.086 216.383 392.993C215.984 391.899 215.785 390.703 215.785 389.404V388.686C215.785 387.182 216.007 385.843 216.451 384.67C216.896 383.485 217.499 382.482 218.263 381.662C219.026 380.842 219.892 380.221 220.86 379.799C221.829 379.378 222.831 379.167 223.868 379.167C225.19 379.167 226.329 379.395 227.286 379.851C228.255 380.306 229.046 380.944 229.662 381.765C230.277 382.574 230.733 383.531 231.029 384.636C231.325 385.729 231.473 386.926 231.473 388.225V389.643H217.665V387.062H228.312V386.823C228.266 386.003 228.095 385.205 227.799 384.431C227.514 383.656 227.058 383.018 226.432 382.517C225.805 382.015 224.951 381.765 223.868 381.765C223.15 381.765 222.49 381.918 221.886 382.226C221.282 382.522 220.764 382.967 220.331 383.559C219.898 384.152 219.562 384.875 219.322 385.729C219.083 386.584 218.963 387.569 218.963 388.686V389.404C218.963 390.281 219.083 391.107 219.322 391.882C219.573 392.645 219.932 393.317 220.399 393.898C220.877 394.479 221.453 394.935 222.125 395.266C222.809 395.596 223.583 395.761 224.449 395.761C225.566 395.761 226.511 395.533 227.286 395.078C228.061 394.622 228.739 394.012 229.32 393.249L231.234 394.77C230.835 395.374 230.328 395.949 229.713 396.496C229.098 397.043 228.34 397.487 227.44 397.829C226.551 398.171 225.497 398.342 224.278 398.342ZM241.826 382.414V398H238.665V379.509H241.741L241.826 382.414ZM247.603 379.406L247.585 382.346C247.323 382.289 247.073 382.255 246.834 382.243C246.606 382.22 246.344 382.209 246.047 382.209C245.318 382.209 244.674 382.323 244.116 382.551C243.558 382.779 243.085 383.098 242.698 383.508C242.31 383.918 242.003 384.408 241.775 384.978C241.558 385.536 241.416 386.151 241.348 386.823L240.459 387.336C240.459 386.219 240.567 385.171 240.784 384.191C241.012 383.212 241.359 382.346 241.826 381.594C242.293 380.83 242.886 380.238 243.604 379.816C244.333 379.383 245.199 379.167 246.201 379.167C246.429 379.167 246.691 379.195 246.987 379.252C247.284 379.298 247.489 379.349 247.603 379.406ZM261.083 395.744C261.835 395.744 262.53 395.59 263.168 395.283C263.806 394.975 264.33 394.554 264.74 394.018C265.15 393.471 265.384 392.85 265.441 392.155H268.449C268.392 393.249 268.021 394.269 267.338 395.214C266.666 396.149 265.783 396.906 264.689 397.487C263.595 398.057 262.393 398.342 261.083 398.342C259.693 398.342 258.48 398.097 257.443 397.607C256.417 397.117 255.563 396.445 254.879 395.59C254.207 394.736 253.7 393.756 253.358 392.651C253.028 391.534 252.863 390.355 252.863 389.113V388.396C252.863 387.154 253.028 385.98 253.358 384.875C253.7 383.758 254.207 382.773 254.879 381.918C255.563 381.064 256.417 380.392 257.443 379.902C258.48 379.412 259.693 379.167 261.083 379.167C262.53 379.167 263.795 379.463 264.877 380.056C265.959 380.637 266.808 381.434 267.423 382.448C268.05 383.451 268.392 384.59 268.449 385.866H265.441C265.384 385.103 265.167 384.414 264.792 383.798C264.427 383.183 263.926 382.693 263.288 382.329C262.661 381.953 261.926 381.765 261.083 381.765C260.115 381.765 259.3 381.958 258.639 382.346C257.99 382.722 257.471 383.234 257.084 383.884C256.708 384.522 256.435 385.234 256.264 386.02C256.104 386.795 256.024 387.587 256.024 388.396V389.113C256.024 389.922 256.104 390.72 256.264 391.506C256.423 392.292 256.691 393.004 257.067 393.642C257.454 394.28 257.973 394.793 258.622 395.18C259.283 395.556 260.103 395.744 261.083 395.744ZM283.177 398.342C281.889 398.342 280.722 398.125 279.673 397.692C278.637 397.248 277.742 396.627 276.99 395.83C276.25 395.032 275.68 394.086 275.281 392.993C274.882 391.899 274.683 390.703 274.683 389.404V388.686C274.683 387.182 274.905 385.843 275.35 384.67C275.794 383.485 276.398 382.482 277.161 381.662C277.924 380.842 278.79 380.221 279.759 379.799C280.727 379.378 281.73 379.167 282.767 379.167C284.088 379.167 285.228 379.395 286.185 379.851C287.153 380.306 287.945 380.944 288.56 381.765C289.175 382.574 289.631 383.531 289.927 384.636C290.223 385.729 290.372 386.926 290.372 388.225V389.643H276.563V387.062H287.21V386.823C287.164 386.003 286.993 385.205 286.697 384.431C286.412 383.656 285.957 383.018 285.33 382.517C284.703 382.015 283.849 381.765 282.767 381.765C282.049 381.765 281.388 381.918 280.784 382.226C280.18 382.522 279.662 382.967 279.229 383.559C278.796 384.152 278.46 384.875 278.221 385.729C277.981 386.584 277.862 387.569 277.862 388.686V389.404C277.862 390.281 277.981 391.107 278.221 391.882C278.471 392.645 278.83 393.317 279.297 393.898C279.776 394.479 280.351 394.935 281.023 395.266C281.707 395.596 282.482 395.761 283.348 395.761C284.464 395.761 285.41 395.533 286.185 395.078C286.959 394.622 287.637 394.012 288.218 393.249L290.132 394.77C289.734 395.374 289.227 395.949 288.611 396.496C287.996 397.043 287.238 397.487 286.338 397.829C285.45 398.171 284.396 398.342 283.177 398.342ZM313.521 373.117V398H310.223V373.117H313.521ZM323.946 384.311V387.011H312.804V384.311H323.946ZM325.638 373.117V375.817H312.804V373.117H325.638ZM336.025 379.509V398H332.847V379.509H336.025ZM332.607 374.604C332.607 374.091 332.761 373.658 333.069 373.305C333.388 372.952 333.855 372.775 334.47 372.775C335.074 372.775 335.535 372.952 335.854 373.305C336.185 373.658 336.35 374.091 336.35 374.604C336.35 375.094 336.185 375.515 335.854 375.869C335.535 376.21 335.074 376.381 334.47 376.381C333.855 376.381 333.388 376.21 333.069 375.869C332.761 375.515 332.607 375.094 332.607 374.604ZM347.763 383.457V398H344.601V379.509H347.592L347.763 383.457ZM347.011 388.054L345.695 388.002C345.706 386.738 345.894 385.57 346.259 384.499C346.623 383.417 347.136 382.477 347.797 381.679C348.458 380.882 349.244 380.266 350.155 379.833C351.078 379.389 352.098 379.167 353.214 379.167C354.126 379.167 354.946 379.292 355.675 379.543C356.404 379.782 357.025 380.17 357.538 380.705C358.062 381.241 358.461 381.936 358.734 382.79C359.008 383.633 359.145 384.664 359.145 385.883V398H355.966V385.849C355.966 384.881 355.823 384.106 355.539 383.525C355.254 382.932 354.838 382.505 354.291 382.243C353.744 381.97 353.072 381.833 352.274 381.833C351.488 381.833 350.771 381.998 350.121 382.329C349.483 382.659 348.931 383.115 348.463 383.696C348.008 384.277 347.649 384.943 347.387 385.695C347.136 386.436 347.011 387.222 347.011 388.054ZM379.102 394.411V371.75H382.281V398H379.375L379.102 394.411ZM366.661 388.959V388.601C366.661 387.188 366.832 385.906 367.173 384.755C367.527 383.593 368.022 382.596 368.66 381.765C369.31 380.933 370.079 380.295 370.967 379.851C371.867 379.395 372.87 379.167 373.975 379.167C375.137 379.167 376.151 379.372 377.017 379.782C377.894 380.181 378.635 380.768 379.239 381.542C379.854 382.306 380.338 383.229 380.691 384.311C381.045 385.393 381.29 386.618 381.426 387.985V389.558C381.301 390.913 381.056 392.132 380.691 393.215C380.338 394.297 379.854 395.22 379.239 395.983C378.635 396.747 377.894 397.333 377.017 397.744C376.14 398.142 375.114 398.342 373.941 398.342C372.859 398.342 371.867 398.108 370.967 397.641C370.079 397.174 369.31 396.519 368.66 395.676C368.022 394.833 367.527 393.841 367.173 392.702C366.832 391.551 366.661 390.304 366.661 388.959ZM369.839 388.601V388.959C369.839 389.882 369.931 390.748 370.113 391.557C370.306 392.366 370.603 393.078 371.001 393.693C371.4 394.309 371.907 394.793 372.522 395.146C373.138 395.488 373.873 395.659 374.727 395.659C375.775 395.659 376.635 395.437 377.308 394.992C377.991 394.548 378.538 393.961 378.948 393.232C379.358 392.503 379.677 391.711 379.905 390.856V386.738C379.769 386.111 379.569 385.507 379.307 384.926C379.056 384.334 378.726 383.81 378.316 383.354C377.917 382.887 377.422 382.517 376.829 382.243C376.248 381.97 375.559 381.833 374.761 381.833C373.895 381.833 373.149 382.015 372.522 382.38C371.907 382.733 371.4 383.223 371.001 383.85C370.603 384.465 370.306 385.183 370.113 386.003C369.931 386.812 369.839 387.678 369.839 388.601ZM398.376 398.342C397.089 398.342 395.921 398.125 394.873 397.692C393.836 397.248 392.941 396.627 392.189 395.83C391.449 395.032 390.879 394.086 390.48 392.993C390.082 391.899 389.882 390.703 389.882 389.404V388.686C389.882 387.182 390.104 385.843 390.549 384.67C390.993 383.485 391.597 382.482 392.36 381.662C393.124 380.842 393.99 380.221 394.958 379.799C395.926 379.378 396.929 379.167 397.966 379.167C399.287 379.167 400.427 379.395 401.384 379.851C402.352 380.306 403.144 380.944 403.759 381.765C404.375 382.574 404.83 383.531 405.126 384.636C405.423 385.729 405.571 386.926 405.571 388.225V389.643H391.762V387.062H402.409V386.823C402.364 386.003 402.193 385.205 401.896 384.431C401.612 383.656 401.156 383.018 400.529 382.517C399.903 382.015 399.048 381.765 397.966 381.765C397.248 381.765 396.587 381.918 395.983 382.226C395.38 382.522 394.861 382.967 394.428 383.559C393.995 384.152 393.659 384.875 393.42 385.729C393.181 386.584 393.061 387.569 393.061 388.686V389.404C393.061 390.281 393.181 391.107 393.42 391.882C393.671 392.645 394.029 393.317 394.497 393.898C394.975 394.479 395.55 394.935 396.223 395.266C396.906 395.596 397.681 395.761 398.547 395.761C399.663 395.761 400.609 395.533 401.384 395.078C402.159 394.622 402.836 394.012 403.417 393.249L405.332 394.77C404.933 395.374 404.426 395.949 403.811 396.496C403.195 397.043 402.438 397.487 401.538 397.829C400.649 398.171 399.595 398.342 398.376 398.342ZM415.924 382.414V398H412.762V379.509H415.838L415.924 382.414ZM421.7 379.406L421.683 382.346C421.421 382.289 421.17 382.255 420.931 382.243C420.703 382.22 420.441 382.209 420.145 382.209C419.416 382.209 418.772 382.323 418.214 382.551C417.656 382.779 417.183 383.098 416.795 383.508C416.408 383.918 416.1 384.408 415.873 384.978C415.656 385.536 415.514 386.151 415.445 386.823L414.557 387.336C414.557 386.219 414.665 385.171 414.881 384.191C415.109 383.212 415.457 382.346 415.924 381.594C416.391 380.83 416.983 380.238 417.701 379.816C418.43 379.383 419.296 379.167 420.299 379.167C420.527 379.167 420.789 379.195 421.085 379.252C421.381 379.298 421.586 379.349 421.7 379.406Z" fill="#BE123C"/>
</svg>
