<svg width="669" height="119" viewBox="0 0 669 119" fill="none" xmlns="http://www.w3.org/2000/svg">
<path d="M56.2839 44.4567L56.3483 44.5249L61.9619 50.4715C64.769 53.4452 66.1564 54.9123 66.9671 55.5364C67.375 55.8504 67.5848 55.9079 67.7227 55.8919C67.8713 55.8748 68.0052 55.7711 68.2689 55.5431C68.819 55.0674 73.306 51.4133 78.2358 47.4256C86.1195 41.0486 90.7192 37.3154 93.3701 35.121C94.696 34.0235 95.5319 33.313 96.0466 32.8499C96.3043 32.6181 96.4783 32.4513 96.592 32.3307C96.6488 32.2704 96.6882 32.2243 96.7146 32.1893C96.7221 32.1794 96.7283 32.1707 96.7333 32.1633C96.7321 32.1601 96.7308 32.1567 96.7294 32.1531C96.711 32.1069 96.6756 32.0395 96.6193 31.9502C96.5076 31.773 96.3309 31.5368 96.0999 31.2567C95.6389 30.698 94.9764 29.9827 94.2242 29.2471C93.3673 28.4094 92.7133 27.6889 92.3072 27.1409C92.1056 26.8687 91.9565 26.6277 91.8773 26.4294C91.8379 26.3307 91.8099 26.2284 91.8095 26.1301C91.8091 26.0274 91.8398 25.9147 91.9325 25.8302L56.2839 44.4567ZM56.2839 44.4567L56.1901 44.4566M56.2839 44.4567L56.1901 44.4566M56.1901 44.4566L38.1372 44.4493C33.1717 44.4473 28.6569 44.4872 25.3829 44.5534C23.7462 44.5864 22.418 44.6261 21.4982 44.6703C21.0389 44.6924 20.6783 44.7159 20.431 44.7405C20.3085 44.7528 20.2077 44.7659 20.1349 44.7805C20.1002 44.7875 20.061 44.7969 20.0263 44.8109C20.0101 44.8174 19.9815 44.8301 19.9534 44.8529C19.9284 44.873 19.8665 44.9319 19.8665 45.0318C19.8665 45.1002 19.8928 45.1549 19.9122 45.1877C19.9333 45.2232 19.9597 45.2552 19.9856 45.2829C20.0375 45.3383 20.1071 45.3967 20.1862 45.4562C20.3461 45.5762 20.5711 45.7196 20.8416 45.8764C21.384 46.1909 22.1282 46.5706 22.9441 46.9406L23.034 46.7423L22.9441 46.9406C24.5604 47.6733 29.7444 50.2865 34.4655 52.7491L34.5661 52.5561L34.4655 52.7491L43.0213 57.2108L55.1199 68.6813L67.2402 80.1727L67.3919 80.3166L67.5418 80.1707L87.3769 60.8582L107.061 41.6928L109.662 44.1831C110.422 44.9105 111.136 45.5505 111.676 45.9959C111.945 46.218 112.175 46.3951 112.347 46.5107C112.432 46.5676 112.51 46.6153 112.577 46.6451C112.609 46.6595 112.651 46.6756 112.697 46.6821C112.733 46.6873 112.836 46.6951 112.918 46.6112L112.918 46.6108C112.949 46.5784 112.975 46.5344 112.991 46.5062C113.011 46.4706 113.034 46.4255 113.059 46.3727C113.111 46.2667 113.177 46.1204 113.258 45.9364C113.419 45.5678 113.641 45.0403 113.918 44.3645C114.472 43.0126 115.251 41.0624 116.224 38.5926C118.171 33.6528 120.894 26.6316 124.149 18.1548C124.522 17.1814 124.825 16.2731 125.012 15.5927C125.105 15.2536 125.171 14.9649 125.201 14.7506C125.216 14.645 125.224 14.5469 125.219 14.4659C125.217 14.4259 125.21 14.379 125.194 14.3336C125.178 14.2902 125.143 14.2219 125.067 14.1799M56.1901 44.4566L101.735 22.3312M101.735 22.3312L101.663 22.1259C106.725 20.3401 113.945 17.7767 117.709 16.4303C119.593 15.7563 121.344 15.164 122.649 14.7525C123.301 14.5468 123.843 14.3857 124.236 14.2821C124.432 14.2304 124.594 14.192 124.716 14.1697C124.776 14.1587 124.831 14.1506 124.878 14.1475C124.902 14.146 124.928 14.1454 124.954 14.1477C124.976 14.1496 125.021 14.1549 125.067 14.1799M101.735 22.3312C106.797 20.5453 114.018 17.9818 117.782 16.6352C121.546 15.2886 124.777 14.2695 124.962 14.3708M101.735 22.3312L123.945 18.0768C124.689 16.1393 125.147 14.4717 124.962 14.3708M101.735 22.3312L101.663 22.1259C99.1308 23.0195 96.7773 23.8783 95.0252 24.5423M101.735 22.3312L95.0252 24.5423M125.067 14.1799L124.962 14.3708M125.067 14.1799C125.067 14.1799 125.066 14.1799 125.066 14.1799L124.962 14.3708M95.0252 24.5423C94.1494 24.8743 93.4225 25.158 92.8984 25.3733M95.0252 24.5423L92.8984 25.3733M92.8984 25.3733C92.6366 25.4808 92.4235 25.5721 92.2669 25.6442M92.8984 25.3733L92.2669 25.6442M92.2669 25.6442C92.1888 25.6801 92.1226 25.7123 92.0705 25.7402M92.2669 25.6442L92.0705 25.7402M92.0705 25.7402C92.0253 25.7643 91.971 25.7952 91.9328 25.83L92.0705 25.7402ZM32.7653 24.6067L32.7653 24.6067C30.8912 26.3445 28.8582 28.4887 27.293 30.3098C26.5106 31.2202 25.8424 32.0528 25.3687 32.7156C25.1321 33.0466 24.9412 33.3391 24.8085 33.5801C24.7422 33.7005 24.6883 33.8118 24.6505 33.9112C24.614 34.0071 24.5862 34.1078 24.5862 34.2021C24.5862 34.3183 24.6619 34.3886 24.6994 34.4172C24.7418 34.4495 24.7913 34.4719 24.8346 34.4883C24.9238 34.5221 25.0434 34.5507 25.1813 34.576C25.4605 34.6272 25.8571 34.6722 26.3382 34.7097C27.3024 34.7848 28.6284 34.8311 30.0843 34.8311H35.3647H35.4551L35.5189 34.7671L38.1544 32.1209L38.0002 31.9673L38.1544 32.1209C43.1853 27.0687 49.1285 23.453 56.2157 21.1353C62.0227 19.2362 66.7946 18.6669 74.0826 19.0097L80.2504 19.3002L80.2919 19.3021L80.3312 19.2886L86.5919 17.143L86.5213 16.9371L86.5919 17.143C88.3171 16.5516 89.8695 15.9605 90.9813 15.484C91.5362 15.2461 91.9864 15.0347 92.2945 14.8645C92.4471 14.7803 92.5737 14.7013 92.6619 14.6301C92.7049 14.5954 92.7498 14.5539 92.7831 14.5062C92.8118 14.465 92.8665 14.3685 92.8264 14.252C92.7936 14.157 92.7248 14.0794 92.6579 14.019C92.5872 13.9551 92.4976 13.8919 92.3952 13.8294C92.1902 13.7042 91.9121 13.5687 91.5776 13.4264C90.9072 13.1411 89.986 12.8184 88.9123 12.4875C86.7639 11.8254 83.9872 11.1249 81.3467 10.6218C76.4344 9.68617 67.5512 9.50037 62.5304 10.228C58.4548 10.8186 52.0916 12.749 47.6123 14.7511C41.9717 17.2725 37.4091 20.3014 32.7653 24.6067ZM24.7345 65.2563L24.7344 65.2563C24.6785 63.5748 24.6018 62.0049 24.5232 60.8298C24.484 60.2426 24.4441 59.7521 24.406 59.3949C24.387 59.2167 24.3681 59.0688 24.3494 58.9575C24.3401 58.9022 24.3304 58.8526 24.3199 58.8114C24.3116 58.7785 24.2967 58.7245 24.268 58.6796C24.2449 58.6434 24.2143 58.6127 24.1906 58.5908C24.1642 58.5663 24.1328 58.5404 24.0985 58.5137C24.0295 58.4603 23.9393 58.3968 23.8323 58.3255C23.6176 58.1826 23.325 58.0014 22.9766 57.7948C22.2792 57.3813 21.3506 56.8615 20.3585 56.3347C18.9838 55.6047 18.0464 55.1531 17.4122 54.9431C17.0967 54.8385 16.8341 54.7859 16.6199 54.8008C16.3915 54.8167 16.2103 54.911 16.0947 55.092C15.9176 55.3692 15.779 55.8054 15.6674 56.3413C15.5544 56.884 15.4646 57.5529 15.3965 58.3131C15.2603 59.834 15.2099 61.7355 15.2407 63.7543C15.3021 67.7886 15.6877 72.3166 16.3702 75.2355C17.8511 81.5699 21.0297 89.0273 24.1252 93.4153C24.388 93.7878 24.6266 94.1575 24.7987 94.4518C24.885 94.5993 24.9529 94.7251 24.9986 94.8213C25.0137 94.8531 25.0258 94.8803 25.035 94.903C24.9969 94.9454 24.9413 95.0039 24.8676 95.0789C24.7061 95.2432 24.4662 95.4777 24.1553 95.7754C23.5341 96.3704 22.6347 97.213 21.5236 98.2415C19.3017 100.298 16.236 103.096 12.863 106.138L12.9827 106.27L12.863 106.138C9.48856 109.182 6.44958 111.995 4.27157 114.076C3.18286 115.116 2.30778 115.975 1.71312 116.589C1.41633 116.895 1.18649 117.143 1.03436 117.324C0.959087 117.413 0.897973 117.491 0.856997 117.555C0.837224 117.585 0.816023 117.622 0.801731 117.66C0.79461 117.679 0.785674 117.707 0.783084 117.741C0.780544 117.774 0.782862 117.832 0.819353 117.889L0.819397 117.889C0.857079 117.948 0.911325 117.977 0.935525 117.989C0.966207 118.004 0.999036 118.015 1.02908 118.023C1.08984 118.04 1.16645 118.054 1.25339 118.067C1.4289 118.092 1.67328 118.113 1.97671 118.131C2.585 118.168 3.44866 118.193 4.51309 118.207C6.64288 118.233 9.58653 118.212 12.9207 118.138L24.5727 117.877L24.6576 117.876L24.7187 117.817L30.65 112.114L36.4558 106.533L40.4261 109.154C45.3893 112.43 50.7446 114.727 57.373 116.425L57.4253 116.221L57.3731 116.425C59.6199 117 61.0411 117.317 62.9053 117.49C64.7639 117.663 67.0599 117.692 71.0569 117.697C75.0792 117.702 77.374 117.68 79.2623 117.508C81.1557 117.335 82.6373 117.01 85.0326 116.418C100.169 112.673 113.266 102.689 120.647 89.2654C126.958 77.7858 128.893 63.2746 125.71 51.2247L125.5 51.2803L125.71 51.2247C125.429 50.1613 125.201 49.3445 125 48.7597C124.899 48.4675 124.803 48.2269 124.707 48.0397C124.614 47.8574 124.511 47.7035 124.386 47.6081C124.32 47.5582 124.244 47.5204 124.157 47.5075C124.069 47.4944 123.985 47.5091 123.908 47.5422C123.764 47.6043 123.643 47.7326 123.537 47.8777C123.323 48.1727 123.088 48.6588 122.809 49.2898L123.008 49.378L122.809 49.2898C122.539 49.8981 122.294 50.4713 122.116 50.9053C122.027 51.1221 121.954 51.3055 121.903 51.4417C121.878 51.5096 121.857 51.5678 121.843 51.6136C121.835 51.6363 121.829 51.6583 121.824 51.6782C121.823 51.6838 121.82 51.6924 121.818 51.7029C121.817 51.7114 121.815 51.7211 121.814 51.7315C121.813 51.7343 121.812 51.7378 121.811 51.7423C121.805 51.7619 121.796 51.7909 121.782 51.83C121.755 51.9079 121.716 52.0186 121.663 52.1594C121.559 52.4406 121.408 52.8367 121.222 53.3192C120.849 54.2838 120.334 55.5907 119.767 57.0068C118.848 59.3047 118.324 60.7178 118.024 62.0193C117.723 63.3252 117.648 64.5111 117.614 66.3513C117.469 74.2234 113.977 83.8958 108.833 90.6561C102.752 98.6475 93.2233 104.992 83.5097 107.516C81.1199 108.137 77.32 108.557 73.4591 108.717C69.5989 108.876 65.702 108.773 63.1197 108.356C45.1699 105.459 30.6981 92.4245 25.8875 74.819C25.2469 72.4742 24.8711 69.3775 24.7345 65.2563ZM121.816 51.7252C121.816 51.7254 121.816 51.7257 121.816 51.726L121.816 51.7252Z" fill="#BE123C" stroke="#BE123C" stroke-width="0.435318"/>
<path d="M177.313 48.8523C177.313 48.0234 177.185 47.2794 176.93 46.6205C176.696 45.9403 176.25 45.3239 175.591 44.7712C174.932 44.1973 174.007 43.634 172.817 43.0814C171.627 42.5287 170.086 41.9548 168.194 41.3597C166.09 40.6795 164.092 39.9143 162.2 39.064C160.329 38.2138 158.671 37.2254 157.226 36.0989C155.802 34.9511 154.675 33.6226 153.846 32.1134C153.039 30.6042 152.635 28.8506 152.635 26.8526C152.635 24.9183 153.06 23.1647 153.91 21.5918C154.76 19.9976 155.951 18.6372 157.481 17.5107C159.011 16.3629 160.818 15.4808 162.901 14.8643C165.006 14.2479 167.312 13.9397 169.82 13.9397C173.242 13.9397 176.229 14.5561 178.779 15.789C181.33 17.0218 183.307 18.7116 184.71 20.8585C186.134 23.0053 186.846 25.4604 186.846 28.2236H177.345C177.345 26.8632 177.058 25.6729 176.484 24.6526C175.931 23.6111 175.081 22.7928 173.933 22.1976C172.806 21.6024 171.382 21.3048 169.661 21.3048C168.003 21.3048 166.621 21.5599 165.516 22.0701C164.41 22.5589 163.581 23.2285 163.029 24.0787C162.476 24.9077 162.2 25.843 162.2 26.8845C162.2 27.671 162.391 28.383 162.774 29.0207C163.178 29.6584 163.773 30.2535 164.559 30.8062C165.346 31.3588 166.313 31.8796 167.461 32.3685C168.608 32.8574 169.937 33.3356 171.446 33.8032C173.976 34.5684 176.197 35.4293 178.11 36.3858C180.044 37.3423 181.659 38.4157 182.956 39.6061C184.253 40.7964 185.23 42.1461 185.889 43.6553C186.548 45.1645 186.878 46.8755 186.878 48.7886C186.878 50.8079 186.485 52.6146 185.698 54.2088C184.912 55.803 183.774 57.1527 182.287 58.258C180.799 59.3633 179.024 60.2029 176.962 60.7768C174.9 61.3507 172.594 61.6377 170.043 61.6377C167.748 61.6377 165.484 61.3401 163.252 60.7449C161.02 60.1285 158.99 59.2039 157.162 57.9711C155.355 56.7382 153.91 55.1653 152.826 53.2523C151.742 51.3393 151.2 49.0755 151.2 46.4611H160.797C160.797 47.9064 161.02 49.1287 161.467 50.1277C161.913 51.1267 162.54 51.9344 163.348 52.5508C164.177 53.1672 165.154 53.6136 166.281 53.8899C167.429 54.1663 168.683 54.3044 170.043 54.3044C171.701 54.3044 173.062 54.0706 174.124 53.603C175.208 53.1354 176.005 52.4871 176.516 51.6581C177.047 50.8291 177.313 49.8939 177.313 48.8523ZM194.606 44.1017V43.4321C194.606 40.9027 194.968 38.5752 195.69 36.4496C196.413 34.3028 197.465 32.4429 198.847 30.8699C200.229 29.297 201.929 28.0748 203.948 27.2033C205.968 26.3106 208.284 25.8642 210.899 25.8642C213.513 25.8642 215.841 26.3106 217.881 27.2033C219.922 28.0748 221.633 29.297 223.015 30.8699C224.418 32.4429 225.48 34.3028 226.203 36.4496C226.926 38.5752 227.287 40.9027 227.287 43.4321V44.1017C227.287 46.6098 226.926 48.9373 226.203 51.0842C225.48 53.2098 224.418 55.0696 223.015 56.6638C221.633 58.2367 219.933 59.459 217.913 60.3304C215.894 61.2019 213.577 61.6377 210.963 61.6377C208.348 61.6377 206.021 61.2019 203.98 60.3304C201.961 59.459 200.25 58.2367 198.847 56.6638C197.465 55.0696 196.413 53.2098 195.69 51.0842C194.968 48.9373 194.606 46.6098 194.606 44.1017ZM203.789 43.4321V44.1017C203.789 45.5471 203.916 46.8968 204.171 48.1509C204.427 49.405 204.83 50.5103 205.383 51.4668C205.957 52.402 206.701 53.1354 207.615 53.6668C208.529 54.1982 209.645 54.4639 210.963 54.4639C212.238 54.4639 213.333 54.1982 214.247 53.6668C215.161 53.1354 215.894 52.402 216.447 51.4668C216.999 50.5103 217.403 49.405 217.658 48.1509C217.935 46.8968 218.073 45.5471 218.073 44.1017V43.4321C218.073 42.0292 217.935 40.7114 217.658 39.4785C217.403 38.2244 216.989 37.1191 216.415 36.1626C215.862 35.1849 215.129 34.4197 214.215 33.867C213.301 33.3144 212.196 33.038 210.899 33.038C209.602 33.038 208.497 33.3144 207.583 33.867C206.69 34.4197 205.957 35.1849 205.383 36.1626C204.83 37.1191 204.427 38.2244 204.171 39.4785C203.916 40.7114 203.789 42.0292 203.789 43.4321ZM256.601 52.7421V26.5019H265.783V61H257.143L256.601 52.7421ZM257.621 45.664L260.331 45.6002C260.331 47.8958 260.066 50.032 259.534 52.0088C259.003 53.9643 258.206 55.6648 257.143 57.1102C256.08 58.5343 254.741 59.6503 253.126 60.458C251.51 61.2444 249.608 61.6377 247.418 61.6377C245.739 61.6377 244.188 61.4039 242.763 60.9362C241.361 60.4473 240.149 59.6928 239.129 58.6725C238.13 57.631 237.343 56.3025 236.769 54.687C236.217 53.0503 235.94 51.0842 235.94 48.7886V26.5019H245.123V48.8523C245.123 49.8726 245.24 50.7335 245.474 51.4349C245.729 52.1363 246.079 52.7102 246.526 53.1566C246.972 53.603 247.493 53.9218 248.088 54.1131C248.704 54.3044 249.385 54.4001 250.129 54.4001C252.02 54.4001 253.508 54.0175 254.592 53.2523C255.698 52.4871 256.473 51.4455 256.92 50.1277C257.387 48.7886 257.621 47.3007 257.621 45.664ZM285.245 34.0264V61H276.063V26.5019H284.703L285.245 34.0264ZM295.639 26.2787L295.48 34.7916C295.034 34.7279 294.492 34.6747 293.854 34.6322C293.237 34.5684 292.674 34.5366 292.164 34.5366C290.867 34.5366 289.741 34.7066 288.784 35.0467C287.849 35.3655 287.063 35.8438 286.425 36.4815C285.809 37.1191 285.341 37.895 285.022 38.809C284.724 39.723 284.554 40.7645 284.512 41.9336L282.663 41.3597C282.663 39.1278 282.886 37.0766 283.332 35.2061C283.779 33.3144 284.427 31.667 285.277 30.2642C286.149 28.8613 287.211 27.7772 288.465 27.012C289.72 26.2468 291.154 25.8642 292.77 25.8642C293.28 25.8642 293.801 25.9067 294.332 25.9917C294.863 26.0555 295.299 26.1512 295.639 26.2787ZM316.855 54.4639C317.981 54.4639 318.98 54.2513 319.852 53.8262C320.723 53.3798 321.403 52.7634 321.892 51.9769C322.402 51.1692 322.668 50.2233 322.689 49.1393H331.33C331.309 51.5624 330.66 53.7199 329.385 55.6117C328.11 57.4822 326.399 58.9594 324.252 60.0435C322.105 61.1063 319.703 61.6377 317.046 61.6377C314.368 61.6377 312.03 61.1913 310.032 60.2986C308.055 59.4058 306.407 58.173 305.09 56.6001C303.772 55.0059 302.783 53.1566 302.124 51.0523C301.466 48.9267 301.136 46.6524 301.136 44.2292V43.3046C301.136 40.8602 301.466 38.5858 302.124 36.4815C302.783 34.3559 303.772 32.5066 305.09 30.9337C306.407 29.3395 308.055 28.0961 310.032 27.2033C312.008 26.3106 314.325 25.8642 316.982 25.8642C319.809 25.8642 322.286 26.4062 324.411 27.4903C326.558 28.5743 328.237 30.126 329.449 32.1453C330.682 34.1433 331.309 36.5134 331.33 39.2553H322.689C322.668 38.1075 322.424 37.066 321.956 36.1307C321.51 35.1955 320.851 34.4515 319.979 33.8989C319.129 33.325 318.077 33.038 316.823 33.038C315.484 33.038 314.389 33.325 313.539 33.8989C312.689 34.4515 312.03 35.2167 311.562 36.1945C311.094 37.151 310.765 38.2457 310.574 39.4785C310.404 40.6901 310.319 41.9655 310.319 43.3046V44.2292C310.319 45.5683 310.404 46.8543 310.574 48.0871C310.744 49.32 311.063 50.4146 311.53 51.3711C312.019 52.3276 312.689 53.0822 313.539 53.6349C314.389 54.1875 315.494 54.4639 316.855 54.4639ZM355.797 61.6377C353.119 61.6377 350.717 61.2126 348.592 60.3623C346.466 59.4908 344.659 58.2899 343.171 56.7595C341.705 55.2291 340.578 53.4542 339.792 51.4349C339.005 49.3943 338.612 47.2263 338.612 44.9306V43.6553C338.612 41.0408 338.984 38.6496 339.728 36.4815C340.472 34.3134 341.535 32.4322 342.916 30.8381C344.319 29.2439 346.02 28.0217 348.018 27.1714C350.016 26.3 352.269 25.8642 354.777 25.8642C357.222 25.8642 359.39 26.2681 361.281 27.0758C363.173 27.8835 364.757 29.0313 366.032 30.5192C367.329 32.0071 368.306 33.7926 368.965 35.8757C369.624 37.9375 369.954 40.2331 369.954 42.7625V46.5886H342.534V40.4669H360.931V39.7655C360.931 38.4901 360.697 37.353 360.229 36.3539C359.783 35.3337 359.103 34.5259 358.189 33.9308C357.275 33.3356 356.106 33.038 354.681 33.038C353.47 33.038 352.428 33.3037 351.557 33.8351C350.685 34.3665 349.973 35.1105 349.421 36.067C348.889 37.0235 348.485 38.15 348.209 39.4466C347.954 40.722 347.826 42.1249 347.826 43.6553V44.9306C347.826 46.3123 348.018 47.5876 348.4 48.7567C348.804 49.9257 349.368 50.9354 350.09 51.7856C350.834 52.6359 351.727 53.2948 352.768 53.7624C353.831 54.23 355.032 54.4639 356.371 54.4639C358.029 54.4639 359.57 54.145 360.994 53.5073C362.44 52.8484 363.683 51.86 364.725 50.5422L369.189 55.3885C368.466 56.43 367.477 57.429 366.223 58.3855C364.991 59.342 363.503 60.1285 361.76 60.7449C360.017 61.3401 358.029 61.6377 355.797 61.6377ZM415.286 51.3074L426.222 14.5774H436.871L420.706 61H413.692L415.286 51.3074ZM405.211 14.5774L416.115 51.3074L417.773 61H410.695L394.625 14.5774H405.211ZM453.591 26.5019V61H444.377V26.5019H453.591ZM443.803 17.5107C443.803 16.1716 444.27 15.0663 445.206 14.1948C446.141 13.3233 447.395 12.8876 448.968 12.8876C450.52 12.8876 451.763 13.3233 452.698 14.1948C453.655 15.0663 454.133 16.1716 454.133 17.5107C454.133 18.8498 453.655 19.9551 452.698 20.8266C451.763 21.6981 450.52 22.1338 448.968 22.1338C447.395 22.1338 446.141 21.6981 445.206 20.8266C444.27 19.9551 443.803 18.8498 443.803 17.5107ZM480.322 61.6377C477.644 61.6377 475.242 61.2126 473.116 60.3623C470.991 59.4908 469.184 58.2899 467.696 56.7595C466.23 55.2291 465.103 53.4542 464.317 51.4349C463.53 49.3943 463.137 47.2263 463.137 44.9306V43.6553C463.137 41.0408 463.509 38.6496 464.253 36.4815C464.997 34.3134 466.06 32.4322 467.441 30.8381C468.844 29.2439 470.545 28.0217 472.543 27.1714C474.541 26.3 476.794 25.8642 479.302 25.8642C481.746 25.8642 483.914 26.2681 485.806 27.0758C487.698 27.8835 489.282 29.0313 490.557 30.5192C491.853 32.0071 492.831 33.7926 493.49 35.8757C494.149 37.9375 494.479 40.2331 494.479 42.7625V46.5886H467.059V40.4669H485.455V39.7655C485.455 38.4901 485.222 37.353 484.754 36.3539C484.308 35.3337 483.627 34.5259 482.713 33.9308C481.799 33.3356 480.63 33.038 479.206 33.038C477.995 33.038 476.953 33.3037 476.082 33.8351C475.21 34.3665 474.498 35.1105 473.945 36.067C473.414 37.0235 473.01 38.15 472.734 39.4466C472.479 40.722 472.351 42.1249 472.351 43.6553V44.9306C472.351 46.3123 472.543 47.5876 472.925 48.7567C473.329 49.9257 473.892 50.9354 474.615 51.7856C475.359 52.6359 476.252 53.2948 477.293 53.7624C478.356 54.23 479.557 54.4639 480.896 54.4639C482.554 54.4639 484.095 54.145 485.519 53.5073C486.965 52.8484 488.208 51.86 489.25 50.5422L493.713 55.3885C492.991 56.43 492.002 57.429 490.748 58.3855C489.515 59.342 488.027 60.1285 486.284 60.7449C484.541 61.3401 482.554 61.6377 480.322 61.6377ZM519.871 26.5019V33.0061H499.784V26.5019H519.871ZM504.758 17.9889H513.94V50.6059C513.94 51.6049 514.068 52.3702 514.323 52.9016C514.599 53.4329 515.003 53.8049 515.535 54.0175C516.066 54.2088 516.735 54.3044 517.543 54.3044C518.117 54.3044 518.627 54.2832 519.074 54.2407C519.541 54.1769 519.934 54.1131 520.253 54.0494L520.285 60.8087C519.499 61.0638 518.648 61.2657 517.735 61.4145C516.821 61.5633 515.811 61.6377 514.706 61.6377C512.686 61.6377 510.922 61.3082 509.413 60.6493C507.925 59.9691 506.777 58.8851 505.969 57.3971C505.162 55.9092 504.758 53.9537 504.758 51.5306V17.9889ZM566.721 14.5774V61H557.155L538.504 29.8816V61H528.938V14.5774H538.504L557.187 45.7277V14.5774H566.721ZM596.353 53.2204V37.8525C596.353 36.7472 596.173 35.8013 595.811 35.0148C595.45 34.2071 594.887 33.5801 594.121 33.1337C593.377 32.6873 592.41 32.4641 591.22 32.4641C590.2 32.4641 589.318 32.6448 588.574 33.0061C587.83 33.3462 587.256 33.8458 586.852 34.5047C586.448 35.1424 586.246 35.8969 586.246 36.7684H577.064C577.064 35.3018 577.404 33.9095 578.084 32.5917C578.764 31.2738 579.752 30.1154 581.049 29.1163C582.346 28.0961 583.887 27.299 585.672 26.7251C587.479 26.1512 589.498 25.8642 591.73 25.8642C594.408 25.8642 596.789 26.3106 598.872 27.2033C600.955 28.0961 602.592 29.4352 603.782 31.2207C604.994 33.0061 605.599 35.238 605.599 37.9162V52.6784C605.599 54.5701 605.716 56.1218 605.95 57.3334C606.184 58.5237 606.524 59.5652 606.97 60.458V61H597.692C597.246 60.0647 596.906 58.8957 596.672 57.4928C596.46 56.0687 596.353 54.6445 596.353 53.2204ZM597.565 39.9887L597.629 45.1857H592.495C591.284 45.1857 590.232 45.3239 589.339 45.6002C588.446 45.8765 587.713 46.2698 587.139 46.7799C586.565 47.2688 586.14 47.8427 585.864 48.5016C585.608 49.1605 585.481 49.8832 585.481 50.6697C585.481 51.4562 585.662 52.1682 586.023 52.8059C586.384 53.4223 586.905 53.9112 587.585 54.2725C588.265 54.6126 589.062 54.7827 589.976 54.7827C591.358 54.7827 592.559 54.5064 593.579 53.9537C594.6 53.4011 595.386 52.7209 595.939 51.9132C596.513 51.1054 596.81 50.3402 596.831 49.6175L599.255 53.5073C598.915 54.3788 598.447 55.2822 597.852 56.2175C597.278 57.1527 596.545 58.0348 595.652 58.8638C594.759 59.6715 593.686 60.3411 592.432 60.8725C591.177 61.3826 589.69 61.6377 587.968 61.6377C585.778 61.6377 583.791 61.2019 582.006 60.3304C580.241 59.4377 578.838 58.2155 577.797 56.6638C576.777 55.0909 576.267 53.3054 576.267 51.3074C576.267 49.5006 576.607 47.8958 577.287 46.4929C577.967 45.0901 578.966 43.9104 580.284 42.9539C581.623 41.9761 583.292 41.2428 585.29 40.7539C587.288 40.2437 589.605 39.9887 592.24 39.9887H597.565ZM625.125 33.6438V61H615.911V26.5019H624.551L625.125 33.6438ZM623.85 42.5394H621.299C621.299 40.1375 621.586 37.9269 622.16 35.9076C622.755 33.867 623.616 32.1028 624.742 30.6149C625.89 29.1057 627.304 27.9366 628.983 27.1077C630.662 26.2787 632.607 25.8642 634.818 25.8642C636.348 25.8642 637.751 26.098 639.026 26.5657C640.302 27.012 641.396 27.7241 642.31 28.7019C643.246 29.6584 643.968 30.9125 644.478 32.4641C644.989 33.9945 645.244 35.8332 645.244 37.98V61H636.061V39.0003C636.061 37.4273 635.849 36.2158 635.423 35.3655C634.998 34.5153 634.393 33.9201 633.606 33.5801C632.841 33.24 631.916 33.0699 630.832 33.0699C629.642 33.0699 628.6 33.3144 627.708 33.8032C626.836 34.2921 626.113 34.9723 625.54 35.8438C624.966 36.694 624.54 37.693 624.264 38.8409C623.988 39.9887 623.85 41.2215 623.85 42.5394ZM644.383 41.4872L641.099 41.9017C641.099 39.6486 641.375 37.5549 641.928 35.6206C642.502 33.6863 643.341 31.9859 644.447 30.5192C645.573 29.0526 646.965 27.9154 648.623 27.1077C650.281 26.2787 652.194 25.8642 654.362 25.8642C656.02 25.8642 657.529 26.1087 658.89 26.5975C660.25 27.0652 661.409 27.8197 662.365 28.8613C663.343 29.8816 664.087 31.2207 664.597 32.8786C665.128 34.5366 665.394 36.5665 665.394 38.9684V61H656.18V38.9684C656.18 37.3742 655.967 36.1626 655.542 35.3337C655.138 34.4834 654.543 33.8989 653.757 33.5801C652.991 33.24 652.077 33.0699 651.015 33.0699C649.909 33.0699 648.942 33.2931 648.113 33.7395C647.284 34.1646 646.593 34.7598 646.041 35.525C645.488 36.2902 645.074 37.1829 644.797 38.2032C644.521 39.2022 644.383 40.2969 644.383 41.4872Z" fill="#BE123C"/>
<path d="M262.481 101.552H265.792C265.62 103.138 265.166 104.559 264.43 105.812C263.694 107.065 262.653 108.06 261.308 108.796C259.962 109.52 258.283 109.883 256.271 109.883C254.799 109.883 253.46 109.607 252.252 109.055C251.056 108.503 250.027 107.721 249.165 106.709C248.302 105.685 247.635 104.461 247.164 103.035C246.704 101.598 246.474 99.9992 246.474 98.2398V95.7388C246.474 93.9794 246.704 92.3868 247.164 90.9609C247.635 89.5235 248.308 88.2932 249.182 87.2697C250.067 86.2463 251.131 85.4586 252.373 84.9067C253.615 84.3547 255.012 84.0788 256.564 84.0788C258.462 84.0788 260.066 84.4352 261.377 85.1482C262.688 85.8611 263.705 86.85 264.43 88.1149C265.166 89.3683 265.62 90.8229 265.792 92.4788H262.481C262.32 91.3059 262.021 90.2997 261.584 89.4603C261.147 88.6094 260.526 87.9539 259.721 87.494C258.916 87.034 257.864 86.804 256.564 86.804C255.449 86.804 254.466 87.0168 253.615 87.4422C252.775 87.8677 252.068 88.4714 251.493 89.2533C250.93 90.0353 250.504 90.9724 250.217 92.0648C249.929 93.1572 249.786 94.3704 249.786 95.7043V98.2398C249.786 99.4702 249.912 100.626 250.165 101.707C250.43 102.788 250.826 103.736 251.355 104.553C251.884 105.369 252.557 106.013 253.373 106.485C254.19 106.945 255.156 107.175 256.271 107.175C257.686 107.175 258.812 106.95 259.652 106.502C260.491 106.053 261.124 105.409 261.549 104.57C261.986 103.731 262.297 102.724 262.481 101.552ZM272.533 100.413V100.016C272.533 98.671 272.729 97.4234 273.119 96.2735C273.51 95.1121 274.074 94.1059 274.81 93.255C275.546 92.3926 276.437 91.7256 277.483 91.2541C278.53 90.7712 279.703 90.5297 281.002 90.5297C282.313 90.5297 283.492 90.7712 284.538 91.2541C285.596 91.7256 286.493 92.3926 287.229 93.255C287.976 94.1059 288.545 95.1121 288.936 96.2735C289.327 97.4234 289.523 98.671 289.523 100.016V100.413C289.523 101.759 289.327 103.006 288.936 104.156C288.545 105.306 287.976 106.312 287.229 107.175C286.493 108.025 285.602 108.692 284.555 109.175C283.52 109.647 282.347 109.883 281.037 109.883C279.726 109.883 278.547 109.647 277.501 109.175C276.454 108.692 275.557 108.025 274.81 107.175C274.074 106.312 273.51 105.306 273.119 104.156C272.729 103.006 272.533 101.759 272.533 100.413ZM275.724 100.016V100.413C275.724 101.345 275.833 102.224 276.052 103.052C276.27 103.869 276.598 104.593 277.035 105.225C277.483 105.858 278.041 106.358 278.708 106.726C279.375 107.083 280.151 107.261 281.037 107.261C281.91 107.261 282.675 107.083 283.331 106.726C283.998 106.358 284.55 105.858 284.986 105.225C285.423 104.593 285.751 103.869 285.97 103.052C286.2 102.224 286.315 101.345 286.315 100.413V100.016C286.315 99.0965 286.2 98.2283 285.97 97.4119C285.751 96.5839 285.418 95.8538 284.969 95.2213C284.532 94.5774 283.98 94.0714 283.313 93.7034C282.658 93.3355 281.887 93.1515 281.002 93.1515C280.128 93.1515 279.358 93.3355 278.691 93.7034C278.035 94.0714 277.483 94.5774 277.035 95.2213C276.598 95.8538 276.27 96.5839 276.052 97.4119C275.833 98.2283 275.724 99.0965 275.724 100.016ZM300.231 94.5831V109.538H297.023V90.8747H300.058L300.231 94.5831ZM299.575 99.4989L298.092 99.4472C298.103 98.1708 298.27 96.9922 298.592 95.9113C298.914 94.8188 299.391 93.8702 300.024 93.0652C300.656 92.2603 301.444 91.6394 302.387 91.2024C303.33 90.7539 304.422 90.5297 305.664 90.5297C306.538 90.5297 307.343 90.6562 308.079 90.9092C308.815 91.1507 309.453 91.5359 309.993 92.0648C310.534 92.5938 310.954 93.2722 311.253 94.1002C311.552 94.9281 311.701 95.9285 311.701 97.1014V109.538H308.51V97.2566C308.51 96.2792 308.343 95.4973 308.01 94.9108C307.688 94.3244 307.228 93.8989 306.63 93.6344C306.032 93.3585 305.331 93.2205 304.526 93.2205C303.583 93.2205 302.795 93.3872 302.163 93.7207C301.53 94.0542 301.024 94.5141 300.645 95.1006C300.265 95.687 299.989 96.3597 299.817 97.1187C299.656 97.8661 299.575 98.6595 299.575 99.4989ZM311.667 97.7396L309.528 98.395C309.539 97.3716 309.706 96.3885 310.028 95.4455C310.361 94.5026 310.839 93.6632 311.46 92.9273C312.092 92.1913 312.868 91.6106 313.788 91.1852C314.708 90.7482 315.76 90.5297 316.945 90.5297C317.945 90.5297 318.83 90.662 319.601 90.9264C320.383 91.1909 321.038 91.5991 321.567 92.1511C322.108 92.6915 322.516 93.3872 322.792 94.2381C323.068 95.0891 323.206 96.101 323.206 97.2739V109.538H319.998V97.2394C319.998 96.193 319.831 95.3823 319.497 94.8073C319.175 94.2209 318.715 93.8127 318.117 93.5827C317.531 93.3412 316.83 93.2205 316.013 93.2205C315.312 93.2205 314.691 93.3412 314.15 93.5827C313.61 93.8242 313.156 94.1577 312.788 94.5831C312.42 94.9971 312.138 95.4743 311.942 96.0147C311.759 96.5552 311.667 97.1302 311.667 97.7396ZM334.742 94.5831V109.538H331.533V90.8747H334.569L334.742 94.5831ZM334.086 99.4989L332.603 99.4472C332.614 98.1708 332.781 96.9922 333.103 95.9113C333.425 94.8188 333.902 93.8702 334.535 93.0652C335.167 92.2603 335.955 91.6394 336.898 91.2024C337.841 90.7539 338.933 90.5297 340.175 90.5297C341.049 90.5297 341.854 90.6562 342.59 90.9092C343.326 91.1507 343.964 91.5359 344.504 92.0648C345.045 92.5938 345.464 93.2722 345.763 94.1002C346.062 94.9281 346.212 95.9285 346.212 97.1014V109.538H343.021V97.2566C343.021 96.2792 342.854 95.4973 342.521 94.9108C342.199 94.3244 341.739 93.8989 341.141 93.6344C340.543 93.3585 339.841 93.2205 339.036 93.2205C338.094 93.2205 337.306 93.3872 336.673 93.7207C336.041 94.0542 335.535 94.5141 335.156 95.1006C334.776 95.687 334.5 96.3597 334.328 97.1187C334.167 97.8661 334.086 98.6595 334.086 99.4989ZM346.177 97.7396L344.039 98.395C344.05 97.3716 344.217 96.3885 344.539 95.4455C344.872 94.5026 345.349 93.6632 345.97 92.9273C346.603 92.1913 347.379 91.6106 348.299 91.1852C349.219 90.7482 350.271 90.5297 351.455 90.5297C352.456 90.5297 353.341 90.662 354.112 90.9264C354.894 91.1909 355.549 91.5991 356.078 92.1511C356.619 92.6915 357.027 93.3872 357.303 94.2381C357.579 95.0891 357.717 96.101 357.717 97.2739V109.538H354.508V97.2394C354.508 96.193 354.342 95.3823 354.008 94.8073C353.686 94.2209 353.226 93.8127 352.628 93.5827C352.042 93.3412 351.34 93.2205 350.524 93.2205C349.823 93.2205 349.202 93.3412 348.661 93.5827C348.121 93.8242 347.667 94.1577 347.299 94.5831C346.931 94.9971 346.649 95.4743 346.453 96.0147C346.269 96.5552 346.177 97.1302 346.177 97.7396ZM373.823 109.883C372.524 109.883 371.345 109.664 370.287 109.227C369.241 108.779 368.338 108.152 367.579 107.347C366.832 106.542 366.257 105.588 365.855 104.484C365.452 103.38 365.251 102.172 365.251 100.862V100.137C365.251 98.6193 365.475 97.2681 365.924 96.0837C366.372 94.8878 366.981 93.8759 367.752 93.048C368.522 92.2201 369.396 91.5934 370.374 91.1679C371.351 90.7424 372.363 90.5297 373.409 90.5297C374.743 90.5297 375.893 90.7597 376.859 91.2197C377.837 91.6796 378.636 92.3236 379.257 93.1515C379.878 93.9679 380.338 94.9338 380.637 96.0492C380.935 97.1531 381.085 98.3605 381.085 99.6714V101.103H367.148V98.4985H377.894V98.2571C377.848 97.4291 377.676 96.6242 377.377 95.8423C377.089 95.0603 376.629 94.4164 375.997 93.9104C375.364 93.4045 374.502 93.1515 373.409 93.1515C372.685 93.1515 372.018 93.3067 371.409 93.6172C370.799 93.9162 370.276 94.3646 369.839 94.9626C369.402 95.5605 369.063 96.2907 368.821 97.1531C368.58 98.0156 368.459 99.0102 368.459 100.137V100.862C368.459 101.747 368.58 102.581 368.821 103.363C369.074 104.133 369.436 104.811 369.908 105.398C370.391 105.984 370.972 106.444 371.65 106.778C372.34 107.111 373.122 107.278 373.996 107.278C375.123 107.278 376.077 107.048 376.859 106.588C377.641 106.128 378.325 105.513 378.912 104.743L380.843 106.278C380.441 106.887 379.929 107.468 379.308 108.02C378.687 108.572 377.923 109.02 377.014 109.365C376.117 109.71 375.054 109.883 373.823 109.883ZM391.534 93.8069V109.538H388.343V90.8747H391.448L391.534 93.8069ZM397.364 90.7712L397.347 93.7379C397.082 93.6804 396.829 93.6459 396.588 93.6344C396.358 93.6114 396.094 93.6 395.795 93.6C395.059 93.6 394.409 93.7149 393.845 93.9449C393.282 94.1749 392.805 94.4969 392.414 94.9108C392.023 95.3248 391.712 95.8193 391.482 96.3942C391.264 96.9577 391.12 97.5786 391.051 98.2571L390.154 98.7745C390.154 97.6476 390.263 96.5897 390.482 95.6008C390.712 94.6119 391.063 93.7379 391.534 92.979C392.006 92.2086 392.604 91.6106 393.328 91.1852C394.064 90.7482 394.938 90.5297 395.95 90.5297C396.18 90.5297 396.444 90.5585 396.743 90.616C397.042 90.662 397.249 90.7137 397.364 90.7712ZM410.97 107.261C411.729 107.261 412.43 107.106 413.074 106.795C413.718 106.485 414.247 106.059 414.661 105.519C415.075 104.967 415.311 104.34 415.368 103.639H418.404C418.346 104.743 417.973 105.772 417.283 106.726C416.604 107.669 415.713 108.434 414.609 109.02C413.505 109.595 412.292 109.883 410.97 109.883C409.567 109.883 408.342 109.635 407.296 109.141C406.261 108.646 405.399 107.968 404.709 107.106C404.03 106.243 403.518 105.254 403.173 104.139C402.84 103.012 402.673 101.822 402.673 100.568V99.8439C402.673 98.5905 402.84 97.4061 403.173 96.2907C403.518 95.1638 404.03 94.1692 404.709 93.3067C405.399 92.4443 406.261 91.7659 407.296 91.2714C408.342 90.7769 409.567 90.5297 410.97 90.5297C412.43 90.5297 413.707 90.8287 414.799 91.4266C415.891 92.0131 416.748 92.818 417.369 93.8414C418.001 94.8533 418.346 96.0032 418.404 97.2911H415.368C415.311 96.5207 415.092 95.825 414.713 95.2041C414.345 94.5831 413.839 94.0887 413.195 93.7207C412.562 93.3412 411.821 93.1515 410.97 93.1515C409.992 93.1515 409.17 93.347 408.503 93.7379C407.848 94.1174 407.325 94.6349 406.934 95.2903C406.554 95.9343 406.278 96.6529 406.106 97.4464C405.945 98.2283 405.864 99.0275 405.864 99.8439V100.568C405.864 101.385 405.945 102.19 406.106 102.983C406.267 103.777 406.537 104.495 406.916 105.139C407.307 105.783 407.831 106.301 408.486 106.692C409.153 107.071 409.981 107.261 410.97 107.261ZM433.269 109.883C431.969 109.883 430.791 109.664 429.733 109.227C428.686 108.779 427.784 108.152 427.025 107.347C426.277 106.542 425.702 105.588 425.3 104.484C424.897 103.38 424.696 102.172 424.696 100.862V100.137C424.696 98.6193 424.92 97.2681 425.369 96.0837C425.817 94.8878 426.427 93.8759 427.197 93.048C427.968 92.2201 428.842 91.5934 429.819 91.1679C430.796 90.7424 431.808 90.5297 432.855 90.5297C434.189 90.5297 435.339 90.7597 436.304 91.2197C437.282 91.6796 438.081 92.3236 438.702 93.1515C439.323 93.9679 439.783 94.9338 440.082 96.0492C440.381 97.1531 440.53 98.3605 440.53 99.6714V101.103H426.594V98.4985H437.339V98.2571C437.293 97.4291 437.121 96.6242 436.822 95.8423C436.534 95.0603 436.074 94.4164 435.442 93.9104C434.81 93.4045 433.947 93.1515 432.855 93.1515C432.13 93.1515 431.463 93.3067 430.854 93.6172C430.244 93.9162 429.721 94.3646 429.284 94.9626C428.847 95.5605 428.508 96.2907 428.267 97.1531C428.025 98.0156 427.904 99.0102 427.904 100.137V100.862C427.904 101.747 428.025 102.581 428.267 103.363C428.52 104.133 428.882 104.811 429.353 105.398C429.836 105.984 430.417 106.444 431.095 106.778C431.785 107.111 432.567 107.278 433.441 107.278C434.568 107.278 435.523 107.048 436.304 106.588C437.086 106.128 437.771 105.513 438.357 104.743L440.289 106.278C439.886 106.887 439.375 107.468 438.754 108.02C438.133 108.572 437.368 109.02 436.46 109.365C435.563 109.71 434.499 109.883 433.269 109.883ZM463.895 84.4237V109.538H460.566V84.4237H463.895ZM474.417 95.7215V98.4468H463.171V95.7215H474.417ZM476.124 84.4237V87.149H463.171V84.4237H476.124ZM486.608 90.8747V109.538H483.4V90.8747H486.608ZM483.158 85.9244C483.158 85.4069 483.314 84.9699 483.624 84.6135C483.946 84.257 484.417 84.0788 485.038 84.0788C485.648 84.0788 486.114 84.257 486.436 84.6135C486.769 84.9699 486.936 85.4069 486.936 85.9244C486.936 86.4188 486.769 86.8443 486.436 87.2007C486.114 87.5457 485.648 87.7182 485.038 87.7182C484.417 87.7182 483.946 87.5457 483.624 87.2007C483.314 86.8443 483.158 86.4188 483.158 85.9244ZM498.454 94.8591V109.538H495.263V90.8747H498.282L498.454 94.8591ZM497.695 99.4989L496.367 99.4472C496.379 98.1708 496.569 96.9922 496.936 95.9113C497.304 94.8188 497.822 93.8702 498.489 93.0652C499.156 92.2603 499.949 91.6394 500.869 91.2024C501.801 90.7539 502.83 90.5297 503.957 90.5297C504.877 90.5297 505.705 90.6562 506.44 90.9092C507.176 91.1507 507.803 91.5416 508.321 92.0821C508.849 92.6225 509.252 93.324 509.528 94.1864C509.804 95.0373 509.942 96.078 509.942 97.3084V109.538H506.734V97.2739C506.734 96.2965 506.59 95.5145 506.302 94.9281C506.015 94.3301 505.595 93.8989 505.043 93.6344C504.491 93.3585 503.813 93.2205 503.008 93.2205C502.215 93.2205 501.49 93.3872 500.835 93.7207C500.191 94.0542 499.633 94.5141 499.162 95.1006C498.702 95.687 498.339 96.3597 498.075 97.1187C497.822 97.8661 497.695 98.6595 497.695 99.4989ZM530.085 105.915V83.0438H533.293V109.538H530.361L530.085 105.915ZM517.528 100.413V100.051C517.528 98.625 517.7 97.3314 518.045 96.17C518.402 94.9971 518.902 93.9909 519.546 93.1515C520.201 92.3121 520.977 91.6681 521.874 91.2197C522.783 90.7597 523.795 90.5297 524.91 90.5297C526.083 90.5297 527.106 90.7367 527.98 91.1507C528.866 91.5531 529.613 92.1453 530.223 92.9273C530.844 93.6977 531.332 94.6291 531.689 95.7215C532.045 96.8139 532.293 98.0501 532.431 99.43V101.017C532.304 102.385 532.057 103.616 531.689 104.708C531.332 105.8 530.844 106.732 530.223 107.502C529.613 108.273 528.866 108.865 527.98 109.279C527.095 109.681 526.06 109.883 524.876 109.883C523.783 109.883 522.783 109.647 521.874 109.175C520.977 108.704 520.201 108.043 519.546 107.192C518.902 106.341 518.402 105.34 518.045 104.191C517.7 103.029 517.528 101.77 517.528 100.413ZM520.736 100.051V100.413C520.736 101.345 520.828 102.218 521.012 103.035C521.207 103.851 521.506 104.57 521.909 105.191C522.311 105.812 522.823 106.301 523.444 106.657C524.065 107.002 524.807 107.175 525.669 107.175C526.727 107.175 527.595 106.95 528.274 106.502C528.964 106.053 529.516 105.461 529.929 104.725C530.343 103.989 530.665 103.19 530.895 102.328V98.1708C530.757 97.5384 530.556 96.9289 530.292 96.3425C530.039 95.7445 529.705 95.2156 529.291 94.7556C528.889 94.2841 528.389 93.9104 527.791 93.6344C527.204 93.3585 526.509 93.2205 525.704 93.2205C524.83 93.2205 524.076 93.4045 523.444 93.7724C522.823 94.1289 522.311 94.6234 521.909 95.2558C521.506 95.8768 521.207 96.6012 521.012 97.4291C520.828 98.2456 520.736 99.1195 520.736 100.051ZM549.538 109.883C548.238 109.883 547.06 109.664 546.002 109.227C544.955 108.779 544.053 108.152 543.294 107.347C542.546 106.542 541.971 105.588 541.569 104.484C541.166 103.38 540.965 102.172 540.965 100.862V100.137C540.965 98.6193 541.189 97.2681 541.638 96.0837C542.086 94.8878 542.696 93.8759 543.466 93.048C544.237 92.2201 545.11 91.5934 546.088 91.1679C547.065 90.7424 548.077 90.5297 549.124 90.5297C550.458 90.5297 551.607 90.7597 552.573 91.2197C553.551 91.6796 554.35 92.3236 554.971 93.1515C555.592 93.9679 556.052 94.9338 556.351 96.0492C556.65 97.1531 556.799 98.3605 556.799 99.6714V101.103H542.862V98.4985H553.608V98.2571C553.562 97.4291 553.39 96.6242 553.091 95.8423C552.803 95.0603 552.343 94.4164 551.711 93.9104C551.078 93.4045 550.216 93.1515 549.124 93.1515C548.399 93.1515 547.732 93.3067 547.123 93.6172C546.513 93.9162 545.99 94.3646 545.553 94.9626C545.116 95.5605 544.777 96.2907 544.536 97.1531C544.294 98.0156 544.173 99.0102 544.173 100.137V100.862C544.173 101.747 544.294 102.581 544.536 103.363C544.789 104.133 545.151 104.811 545.622 105.398C546.105 105.984 546.686 106.444 547.364 106.778C548.054 107.111 548.836 107.278 549.71 107.278C550.837 107.278 551.791 107.048 552.573 106.588C553.355 106.128 554.039 105.513 554.626 104.743L556.558 106.278C556.155 106.887 555.644 107.468 555.023 108.02C554.402 108.572 553.637 109.02 552.729 109.365C551.832 109.71 550.768 109.883 549.538 109.883ZM567.248 93.8069V109.538H564.057V90.8747H567.162L567.248 93.8069ZM573.078 90.7712L573.061 93.7379C572.797 93.6804 572.544 93.6459 572.302 93.6344C572.072 93.6114 571.808 93.6 571.509 93.6C570.773 93.6 570.123 93.7149 569.56 93.9449C568.996 94.1749 568.519 94.4969 568.128 94.9108C567.737 95.3248 567.427 95.8193 567.197 96.3942C566.978 96.9577 566.834 97.5786 566.765 98.2571L565.869 98.7745C565.869 97.6476 565.978 96.5897 566.196 95.6008C566.426 94.6119 566.777 93.7379 567.248 92.979C567.72 92.2086 568.318 91.6106 569.042 91.1852C569.778 90.7482 570.652 90.5297 571.664 90.5297C571.894 90.5297 572.158 90.5585 572.457 90.616C572.756 90.662 572.963 90.7137 573.078 90.7712Z" fill="#BE123C"/>
</svg>
